<svg xmlns="http://www.w3.org/2000/svg" width="23" height="18.69" viewBox="0 0 23 18.69"><defs><style>.cls-1{fill:#fff;}</style></defs><g id="レイヤー_2" data-name="レイヤー 2"><g id="デザイン"><path class="cls-1" d="M7.23,18.69A13.34,13.34,0,0,0,20.66,5.27c0-.21,0-.41,0-.61A9.61,9.61,0,0,0,23,2.21,9.56,9.56,0,0,1,20.29,3,4.82,4.82,0,0,0,22.37.35a9.56,9.56,0,0,1-3,1.14,4.71,4.71,0,0,0-8,4.3A13.37,13.37,0,0,1,1.6.86,4.78,4.78,0,0,0,1,3.24a4.7,4.7,0,0,0,2.1,3.92A4.6,4.6,0,0,1,.92,6.57v.06a4.72,4.72,0,0,0,3.79,4.63,4.64,4.64,0,0,1-1.24.17,4.33,4.33,0,0,1-.89-.09A4.72,4.72,0,0,0,7,14.62a9.51,9.51,0,0,1-5.86,2A8.36,8.36,0,0,1,0,16.57a13.35,13.35,0,0,0,7.23,2.12"/></g></g></svg>