<svg xmlns="http://www.w3.org/2000/svg" width="24" height="24" viewBox="0 0 24 24"><defs><style>.cls-1{fill:#fff;opacity:0.8;}</style></defs><title>ico_twitter</title><g id="レイヤー_2" data-name="レイヤー 2"><g id="レイヤー1"><path class="cls-1" d="M22.5,0H1.5A1.5,1.5,0,0,0,0,1.5v21A1.5,1.5,0,0,0,1.5,24h21A1.5,1.5,0,0,0,24,22.5V1.5A1.5,1.5,0,0,0,22.5,0ZM18,9c0,.13,0,.26,0,.4a8.73,8.73,0,0,1-8.78,8.78h0a8.71,8.71,0,0,1-4.73-1.39,5.84,5.84,0,0,0,.73,0A6.19,6.19,0,0,0,9,15.5a3.07,3.07,0,0,1-2.88-2.14,3.11,3.11,0,0,0,1.39,0,3.09,3.09,0,0,1-2.47-3v0a3.13,3.13,0,0,0,1.4.39,3.09,3.09,0,0,1-1-4.12,8.74,8.74,0,0,0,6.36,3.22,3.09,3.09,0,0,1,5.26-2.81,6.22,6.22,0,0,0,2-.75,3.11,3.11,0,0,1-1.36,1.71,6.45,6.45,0,0,0,1.78-.49A6.51,6.51,0,0,1,18,9Z"/></g></g></svg>