<svg xmlns="http://www.w3.org/2000/svg" width="24" height="24" viewBox="0 0 24 24"><defs><style>.cls-1{opacity:0.8;}.cls-2{fill:#fff;}</style></defs><title>icon_fb</title><g id="レイヤー_2" data-name="レイヤー 2"><g id="レイヤー1"><g id="White" class="cls-1"><path class="cls-2" d="M22.68,0H1.32A1.32,1.32,0,0,0,0,1.32V22.68A1.32,1.32,0,0,0,1.32,24h11.5V14.71H9.69V11.08h3.13V8.41c0-3.1,1.89-4.79,4.66-4.79a23.5,23.5,0,0,1,2.79.15V7H18.35c-1.5,0-1.79.71-1.79,1.76v2.31h3.59l-.47,3.63H16.56V24h6.12A1.32,1.32,0,0,0,24,22.68V1.32A1.32,1.32,0,0,0,22.68,0Z"/></g></g></g></svg>