<svg xmlns="http://www.w3.org/2000/svg" width="114" height="25" viewBox="0 0 114 25"><defs><style>.cls-1{fill:#fff;opacity:0.8;}</style></defs><title>icon_gmb</title><g id="レイヤー_2" data-name="レイヤー 2"><g id="レイヤー1"><path class="cls-1" d="M28.29,11.7a1.62,1.62,0,0,0-1.67,1.51,1.67,1.67,0,1,0,3.31.22A1.64,1.64,0,0,0,28.29,11.7Z"/><path class="cls-1" d="M35.48,11.7a1.63,1.63,0,0,0-1.81.51A1.93,1.93,0,0,0,33.36,14,1.66,1.66,0,0,0,35.66,15a1.71,1.71,0,0,0,1-1.66c0-.1,0-.24-.06-.39A1.45,1.45,0,0,0,35.48,11.7Z"/><path class="cls-1" d="M44,11.79a1.4,1.4,0,0,0-1,1.34l3-.56A1.58,1.58,0,0,0,44,11.79Z"/><path class="cls-1" d="M112.5,0H1.5A1.5,1.5,0,0,0,0,1.5v22A1.5,1.5,0,0,0,1.5,25h111a1.5,1.5,0,0,0,1.5-1.5V1.5A1.5,1.5,0,0,0,112.5,0ZM91,8.22c.06-.09.11-.12.21-.09A13.62,13.62,0,0,1,93.36,9c.07,0,.11.07.11.11a.16.16,0,0,1,0,.1A8.41,8.41,0,0,1,93,10c0,.07-.08.1-.13.1a.19.19,0,0,1-.11,0,10.29,10.29,0,0,0-2.23-1C90.75,8.7,90.93,8.37,91,8.22Zm-6.65.45c.05,0,.09,0,.15,0a4.6,4.6,0,0,1,1,1.07.1.1,0,0,1,0,.16l-.42.31a.1.1,0,0,1-.17,0,5,5,0,0,0-1-1.16ZM79.8,9c.07-.12.13-.14.25-.08A6.8,6.8,0,0,1,81.93,10a.16.16,0,0,1,.08.13.24.24,0,0,1,0,.13,4.28,4.28,0,0,1-.51.75.11.11,0,0,1-.1.06.26.26,0,0,1-.15-.07,9.67,9.67,0,0,0-1.94-1.23ZM17.86,12.89A5.35,5.35,0,0,1,16.67,15a4.52,4.52,0,0,1-1.89,1.24,5.48,5.48,0,0,1-1.22.23,6.31,6.31,0,0,1-1.15,0,4.66,4.66,0,0,1-2-.67,5.17,5.17,0,0,1-1.65-1.64,3.62,3.62,0,0,1-.62-1.53A9.84,9.84,0,0,1,8,11.44a7.5,7.5,0,0,1,.15-1.24A4.78,4.78,0,0,1,9.91,7.28a4.51,4.51,0,0,1,1.92-1,5.62,5.62,0,0,1,2-.08,4.82,4.82,0,0,1,2.31.93c.11.08.13.15,0,.26l-.75,1a3.92,3.92,0,0,0-2-.81,3.57,3.57,0,0,0-1.17.09,3.14,3.14,0,0,0-2.3,1.74A3.25,3.25,0,0,0,9.56,11a4.45,4.45,0,0,0,.22,1.88A3.33,3.33,0,0,0,12,14.91a3.84,3.84,0,0,0,2.57-.16,2.81,2.81,0,0,0,1.29-1.12,3.86,3.86,0,0,0,.53-1.41H13.25c-.26,0-.28,0-.28-.28V11c0-.15,0-.21.21-.21h4.61c.2,0,.25.09.26.25A6.33,6.33,0,0,1,17.86,12.89Zm3.71,3.64a3.1,3.1,0,1,1,0-6.2,3.1,3.1,0,1,1,0,6.2Zm6.86,0a3.12,3.12,0,0,1-.34-6.23,3.12,3.12,0,1,1,.34,6.23Zm9.57.23a2.37,2.37,0,0,1-1.34,2.05,3.52,3.52,0,0,1-1.88.38,4,4,0,0,1-2.33-.72l-.17-.14L33,17.21a3.15,3.15,0,0,0,2.17.6c.71-.07,1.17-.24,1.36-1a3.28,3.28,0,0,0,0-.77,3,3,0,0,1-4-.51A3.06,3.06,0,0,1,31.85,13a3,3,0,0,1,4.73-2.2,1.85,1.85,0,0,0,0-.24c0-.14.06-.19.19-.19h1.08c.16,0,.16.1.16.21v1.77C38,13.82,38,15.29,38,16.77Zm2.59-5.32V16.1c0,.29,0,.3-.31.3H39.4c-.2,0-.28-.06-.28-.27,0-1.76,0-3.52,0-5.28,0-1.37,0-2.74,0-4.11,0-.21.06-.26.26-.25h1c.19,0,.25,0,.25.24C40.59,8.3,40.59,9.87,40.59,11.45Zm7,1.89-.95.22c-.49.09-1,.19-1.46.27l-1,.16-.85.18-.32.06a1.16,1.16,0,0,0,.85.8A1.72,1.72,0,0,0,46,14.38l1.25.63a3.18,3.18,0,0,1-1.77,1.38,3.3,3.3,0,0,1-1.59.09,3.09,3.09,0,0,1-1.43-5.43,3.08,3.08,0,0,1,2.44-.71,3.07,3.07,0,0,1,2.64,2.5l0,0Zm10.47-2.12a3,3,0,0,0-.48.38,35.75,35.75,0,0,1-2.69,2.68,10.66,10.66,0,0,1,.88,1,.23.23,0,0,1,.07.15.24.24,0,0,1-.09.16,7.35,7.35,0,0,1-.65.59.27.27,0,0,1-.13.05s-.08,0-.12-.09A15,15,0,0,0,51.67,13l.72-.67a.21.21,0,0,1,.11,0,.3.3,0,0,1,.14.07,15.62,15.62,0,0,1,1.42,1.12,22.41,22.41,0,0,0,2.31-2.36l-4.21,0c-.58,0-1.31,0-1.85.07-.13,0-.16-.06-.18-.18A9.21,9.21,0,0,1,50,10c.68.07,1.49.07,2.17.07h4.1a1.84,1.84,0,0,0,.83-.09.3.3,0,0,1,.14-.05.25.25,0,0,1,.17.08,4.61,4.61,0,0,1,.72.8.42.42,0,0,1,.08.22A.25.25,0,0,1,58.09,11.22ZM66,9.39a3.29,3.29,0,0,0-.6.55,15.83,15.83,0,0,1-1.17,1.26v3.31c0,.69,0,1.28,0,2.07,0,.13,0,.17-.15.17a8.34,8.34,0,0,1-1,0c-.11,0-.15,0-.14-.16,0-.71,0-1.36,0-2V12.22a17.71,17.71,0,0,1-2.74,1.92.28.28,0,0,1-.15,0,.28.28,0,0,1-.21-.1,3.74,3.74,0,0,0-.86-.59,16.26,16.26,0,0,0,3.14-2.05A16.22,16.22,0,0,0,64.3,9.35a2.9,2.9,0,0,0,.63-1A8.9,8.9,0,0,1,66,9a.18.18,0,0,1,.08.15A.29.29,0,0,1,66,9.39Zm8.89,6.69a21.5,21.5,0,0,1-3,.17A5,5,0,0,1,70,16c-.5-.21-.71-.68-.71-1.5V10.8A11.77,11.77,0,0,0,69.2,9a8.4,8.4,0,0,1,1.25.2c.12,0,.16.09.16.16a.44.44,0,0,1-.07.21,2.28,2.28,0,0,0-.1.9v1.39a18.78,18.78,0,0,0,2.44-1A3.1,3.1,0,0,0,74,10.14a5.74,5.74,0,0,1,.83.9.29.29,0,0,1,.08.18c0,.08,0,.15-.17.18a5.31,5.31,0,0,0-.83.33A26.24,26.24,0,0,1,70.43,13V14.3c0,.47.07.63.33.71a5.12,5.12,0,0,0,1.26.11,17.64,17.64,0,0,0,2.82-.23c.15,0,.17,0,.18.14,0,.28.06.66.06.87S75,16.06,74.87,16.08Zm.82-5.89-.42.31a.1.1,0,0,1-.17,0,5,5,0,0,0-1-1.16l.53-.37s.09,0,.15,0a4.6,4.6,0,0,1,1,1.07A.1.1,0,0,1,75.69,10.19Zm.89-.67-.4.31a.1.1,0,0,1-.17,0,4.73,4.73,0,0,0-1-1.15l.5-.36c.06,0,.09,0,.15,0a4.18,4.18,0,0,1,1,1A.12.12,0,0,1,76.58,9.52Zm2,1.76c.05-.07.1-.12.19-.1a7,7,0,0,1,1.91,1c.07.05.11.09.11.15a.3.3,0,0,1,0,.11,4.07,4.07,0,0,1-.44.76c0,.06-.09.1-.13.1a.19.19,0,0,1-.12-.06,8.7,8.7,0,0,0-2-1.09C78.32,11.73,78.48,11.44,78.6,11.28Zm7.46.73a18.63,18.63,0,0,1-2.54,2.31,23.22,23.22,0,0,1-3,1.88,3.29,3.29,0,0,0-.58.34.25.25,0,0,1-.16.07.27.27,0,0,1-.2-.11,6.35,6.35,0,0,1-.73-1A4.68,4.68,0,0,0,80.21,15,16.75,16.75,0,0,0,83,13.26a18.2,18.2,0,0,0,2.88-2.79,5,5,0,0,0,.29,1.12.49.49,0,0,1,0,.19A.31.31,0,0,1,86.06,12Zm.28-2.76-.4.31a.1.1,0,0,1-.17,0,4.73,4.73,0,0,0-1-1.15l.5-.36c.06,0,.09,0,.15,0a4.18,4.18,0,0,1,1,1A.12.12,0,0,1,86.34,9.25ZM92.49,17a6.17,6.17,0,0,1-.86,0c-.12,0-.19,0-.19-.14,0-.28,0-.94,0-1.77V13.77a17.65,17.65,0,0,1-2.74,1.67.41.41,0,0,1-.17.05.27.27,0,0,1-.2-.11,2.33,2.33,0,0,0-.8-.61A18.84,18.84,0,0,0,90.79,13a13.88,13.88,0,0,0,1.94-1.62l-2.31.05-1.32.07c-.1,0-.14-.06-.16-.19a8.75,8.75,0,0,1-.11-1,9.5,9.5,0,0,0,1.38.08l2.9,0a1.62,1.62,0,0,0,.71-.11.34.34,0,0,1,.15,0,.22.22,0,0,1,.17.08,3.91,3.91,0,0,1,.5.59.32.32,0,0,1,.06.17q0,.12-.15.18a1.07,1.07,0,0,0-.32.23c-.51.52-1,1-1.58,1.48v2.12c0,.89,0,1.54,0,1.79C92.68,16.93,92.61,17,92.49,17Zm3.67-2.81a5.71,5.71,0,0,1-.49.72.17.17,0,0,1-.12.08.3.3,0,0,1-.14-.07,11.1,11.1,0,0,0-2.25-1.38c.22-.32.44-.62.57-.77s.1-.08.2,0a10.65,10.65,0,0,1,2.18,1.22c.06,0,.09.07.09.12A.24.24,0,0,1,96.16,14.16ZM106,15.43a4.71,4.71,0,0,1-.67.67.15.15,0,0,1-.12.07s-.09,0-.14-.09a18.68,18.68,0,0,0-2.6-2.47,14.39,14.39,0,0,1-3.36,2.64.54.54,0,0,1-.22.08.24.24,0,0,1-.17-.1,2.88,2.88,0,0,0-.84-.64A12.23,12.23,0,0,0,101.34,13a12.27,12.27,0,0,0,1.88-2.51h-2.58c-.52,0-1,0-1.58.06-.07,0-.1-.06-.12-.17a5.83,5.83,0,0,1-.09-1c.53,0,1,0,1.68,0h2.75a1.47,1.47,0,0,0,.69-.09.17.17,0,0,1,.11,0,.33.33,0,0,1,.17.08,3.65,3.65,0,0,1,.65.7.27.27,0,0,1,0,.13.28.28,0,0,1-.13.2,1.83,1.83,0,0,0-.37.44,15.78,15.78,0,0,1-1.28,1.87,23.51,23.51,0,0,1,2.77,2.42.23.23,0,0,1,.08.14A.25.25,0,0,1,106,15.43Z"/><path class="cls-1" d="M21.57,11.71a1.62,1.62,0,0,0-1.66,1.7,1.6,1.6,0,0,0,1.69,1.73,1.58,1.58,0,0,0,1.64-1.68A1.6,1.6,0,0,0,21.57,11.71Z"/></g></g></svg>