<?xml version="1.0" encoding="utf-8"?>
<!-- Generator: Adobe Illustrator 25.2.1, SVG Export Plug-In . SVG Version: 6.00 Build 0)  -->
<svg version="1.1" id="レイヤー_1" xmlns="http://www.w3.org/2000/svg" xmlns:xlink="http://www.w3.org/1999/xlink" x="0px"
	 y="0px" viewBox="0 0 164.9 26.4" style="enable-background:new 0 0 164.9 26.4;" xml:space="preserve">
<style type="text/css">
	.st0{fill:#231815;}
	.st1{fill:#0076C2;}
	.st2{fill:#E3007F;}
</style>
<g>
	<g>
		<path class="st0" d="M53.1,2.9c-5.9,0-10.6,4.6-10.6,10.3c0,5.7,4.8,10.3,10.6,10.3c5.9,0,10.6-4.6,10.6-10.3
			C63.7,7.5,58.9,2.9,53.1,2.9z M53.1,20.6c-4.2,0-7.7-3.3-7.7-7.4c0-4.1,3.4-7.4,7.7-7.4c4.2,0,7.7,3.3,7.7,7.4
			C60.7,17.3,57.3,20.6,53.1,20.6z"/>
		<path class="st0" d="M88.8,13c-0.1-3.2-2.8-5.8-6.1-5.8c-2,0-3.7,0.9-4.9,2.3c-1.1-1.4-2.9-2.3-4.9-2.3c-3.3,0-6.1,2.6-6.1,5.8h0
			v0.2v0.2V23h2.6v-9.6v-0.2c0-1.9,1.6-3.5,3.6-3.5c2,0,3.6,1.5,3.6,3.5v0.2V23h2.6v-9.6v-0.2c0-1.9,1.6-3.5,3.6-3.5
			c2,0,3.6,1.5,3.6,3.5v0.2V23h2.6v-9.6v-0.2L88.8,13L88.8,13z"/>
		<path class="st0" d="M105.6,13c-0.1-3.2-3.1-5.8-6.9-5.8C95,7.3,92,9.8,91.8,13h0v0.2v0.2V23h2.6v-9.6v-0.2c0-1.9,1.9-3.5,4.3-3.5
			c2.4,0,4.3,1.5,4.3,3.5v0.2V23h2.6v-9.6v-0.2L105.6,13L105.6,13z"/>
		<path class="st0" d="M147.1,7.8v9.6v0.2c0,1.9-1.9,3.4-4.3,3.4c-2.4,0-4.3-1.5-4.3-3.4v-0.2V7.8h-2.6v9.6v0.2v0.2h0
			c0.1,3.2,3.1,5.8,6.9,5.8c3.7,0,6.8-2.6,6.9-5.8h0v-0.2v-0.2V7.8H147.1z"/>
		<rect x="109.5" y="7.8" class="st0" width="2.6" height="15.2"/>
		<path class="st0" d="M124.6,7.3c-2.3,0-4.3,0.9-5.8,2.3V2.4h-2.6V23h2.6v-1.8c1.5,1.4,3.6,2.3,5.8,2.3c4.6,0,8.4-3.6,8.4-8.1
			C133,10.9,129.2,7.3,124.6,7.3z M124.6,21c-3.2,0-5.8-2.5-5.8-5.6c0-3.1,2.6-5.6,5.8-5.6c3.2,0,5.8,2.5,5.8,5.6
			C130.4,18.5,127.8,21,124.6,21z"/>
		<path class="st0" d="M110.8,1.5c-1.1,0-2,0.9-2,2c0,1.1,0.9,2,2,2c1.1,0,2-0.9,2-2C112.8,2.4,111.9,1.5,110.8,1.5z"/>
		<path class="st0" d="M161,14.4l-2.2-0.5c-2-0.4-2.9-0.9-2.9-2.2c0-1.5,1.5-2.1,3.1-2.1c1.4,0,2.5,0.7,3.2,1.9l0.1,0.2l2.3-1.4
			l-0.1-0.1c-0.9-1.8-2.8-2.8-5.4-2.8c-3,0-6,1.5-6,4.7c0,1.4,0.7,3.3,4.1,4.1l2.1,0.5c1.8,0.4,2.8,0.9,2.8,2.3
			c0,1.6-1.8,2.4-3.5,2.4c-1.6,0-3-0.8-4-2.2l-0.1-0.1l-2.2,1.4l0.1,0.1c1.4,2,3.5,3,6.2,3c2.9,0,6.3-1.3,6.3-4.8
			C164.9,16.6,163.4,14.9,161,14.4z"/>
	</g>
	<g>
		<path class="st1" d="M18.4,13.2c0,2.5-2.1,4.5-4.7,4.5c-2.6,0-4.7-2-4.7-4.5c0-2.5,2.1-4.5,4.7-4.5C16.3,8.7,18.4,10.7,18.4,13.2
			L18.4,13.2z"/>
		<path class="st2" d="M30.9,23.7c0,1.5-1.3,2.7-2.8,2.7c-1.6,0-2.8-1.2-2.8-2.7c0-1.5,1.3-2.7,2.8-2.7C29.6,21,30.9,22.2,30.9,23.7
			L30.9,23.7z"/>
		<path class="st1" d="M0,13.2c0,7.3,6.1,13.2,13.7,13.2c7.5,0,13.7-5.9,13.7-13.2C27.3,5.9,21.2,0,13.7,0C6.1,0,0,5.9,0,13.2
			L0,13.2z M4.5,13.2c0-4.9,4.1-8.8,9.2-8.8c5,0,9.2,4,9.2,8.8c0,4.9-4.1,8.8-9.2,8.8C8.6,22,4.5,18.1,4.5,13.2L4.5,13.2z"/>
	</g>
</g>
</svg>
