<svg xmlns="http://www.w3.org/2000/svg" width="98" height="92.94" viewBox="0 0 98 92.94"><defs><style>.cls-1{fill:#fff;}</style></defs><g id="レイヤー_2" data-name="レイヤー 2"><g id="デザイン"><path class="cls-1" d="M98,89.46c-.92,2.58-3,3.79-5.89,3.41a5.48,5.48,0,0,1-4.36-2.68L89.52,89l.47.57a3.84,3.84,0,0,0,4.73,1,1.71,1.71,0,0,0,1-1.56,1.48,1.48,0,0,0-1.08-1.47c-.85-.28-1.74-.45-2.58-.74a9.79,9.79,0,0,1-2.46-1,3.45,3.45,0,0,1,.11-5.57,6,6,0,0,1,6.86.11,9.93,9.93,0,0,1,1.1,1.3l-.24.22-1.66,1.09c-.12-.17-.24-.32-.34-.49a3,3,0,0,0-4.11-.85A1.48,1.48,0,0,0,90.54,83a1.28,1.28,0,0,0,.89,1.24c1,.33,2,.6,2.95.84a4.56,4.56,0,0,1,2.94,1.74,9.69,9.69,0,0,1,.68,1.5Z"/><path class="cls-1" d="M17.46,84.17a8.78,8.78,0,0,1-8.72,8.74,8.75,8.75,0,1,1,8.72-8.74ZM8.74,77.9A6.27,6.27,0,1,0,15,84.15,6.26,6.26,0,0,0,8.74,77.9Z"/><path class="cls-1" d="M28.61,81A5.28,5.28,0,0,1,32,79.15a5,5,0,0,1,5.63,4.54c.11,2.86.05,5.73.07,8.59a1,1,0,0,1,0,.18H35.48v-.63c0-2.47,0-4.93,0-7.4a2.94,2.94,0,0,0-1.83-3,2.86,2.86,0,0,0-3.93,2.63c0,2.56,0,5.11,0,7.67v.68H27.54V91.8c0-2.48,0-5,0-7.45a2.91,2.91,0,1,0-5.81,0c0,2.5,0,5,0,7.5v.61H19.61c0-.15,0-.28,0-.42,0-2.54,0-5.08,0-7.62a5,5,0,0,1,2.65-4.68,5,5,0,0,1,6.15,1A3.22,3.22,0,0,1,28.61,81Z"/><path class="cls-1" d="M60.92,91.08v1.36H58.79V75H60.9v6a7,7,0,0,1,6-1.74A6.64,6.64,0,0,1,71,81.69a6.91,6.91,0,0,1-10.09,9.39Zm9.43-5a4.72,4.72,0,1,0-4.75,4.68A4.76,4.76,0,0,0,70.35,86.07Z"/><path class="cls-1" d="M51.1,92.46H49v-.57c0-2.4-.08-4.8,0-7.19a3.28,3.28,0,0,0-3.63-3.42,4.61,4.61,0,0,0-1.66.41,2.77,2.77,0,0,0-1.75,2.73v8H39.79c0-.18,0-.36,0-.53,0-2.49,0-5,0-7.46a5.32,5.32,0,0,1,4.9-5.28A5.84,5.84,0,0,1,50,81.13a4.07,4.07,0,0,1,1.14,2.68C51.12,86.67,51.1,89.54,51.1,92.46Z"/><path class="cls-1" d="M74.55,79.54H76.7v7.62a3.4,3.4,0,0,0,4.47,3.46,3.05,3.05,0,0,0,2.55-3.26V80c0-.15,0-.29,0-.46H85.8s0,0,0,.06c0,2.88.09,5.76,0,8.64a5.12,5.12,0,0,1-4.51,4.54,5.92,5.92,0,0,1-5.6-1.93,4,4,0,0,1-1.12-2.63C74.53,85.36,74.55,82.48,74.55,79.54Z"/><path class="cls-1" d="M56,92.47H53.88V79.55H56Z"/><path class="cls-1" d="M54.93,77.91a1.69,1.69,0,1,1,0-3.37,1.69,1.69,0,0,1,0,3.37Z"/><path class="cls-1" d="M16.15,28.75c.17-1.31.31-2.62.51-3.92A28.38,28.38,0,0,1,29.74,4.54,28,28,0,0,1,43.83.05,29,29,0,1,1,18.16,39a26.68,26.68,0,0,1-1.74-8.61,6.21,6.21,0,0,0-.27-1.25Zm48.72.2a19.62,19.62,0,1,0-39.24-.05A19.62,19.62,0,1,0,64.87,29Z"/><path class="cls-1" d="M75.37,58.14c-.48-.15-1-.3-1.42-.47a5.89,5.89,0,0,1,2.74-11.39,5.9,5.9,0,0,1,.36,11.65,6.08,6.08,0,0,0-.6.21Z"/><path class="cls-1" d="M35.46,28.91a9.82,9.82,0,1,1,9.71,9.9A9.77,9.77,0,0,1,35.46,28.91Z"/></g></g></svg>