<svg xmlns="http://www.w3.org/2000/svg" width="218" height="36.15" viewBox="0 0 218 36.15"><defs><style>.cls-1{fill:#fff;}.cls-2{fill:#0076c2;}.cls-3{fill:#e3007f;}</style></defs><g id="レイヤー_2" data-name="レイヤー 2"><g id="デザイン"><path class="cls-1" d="M70.13,4A14.07,14.07,0,1,0,84.2,18.07,14.08,14.08,0,0,0,70.13,4Zm0,24.23A10.17,10.17,0,1,1,80.29,18.07,10.18,10.18,0,0,1,70.13,28.24Z"/><path class="cls-1" d="M117.35,17.85a8.12,8.12,0,0,0-14.55-4.74,8.12,8.12,0,0,0-14.55,4.74h0V31.47h3.42V18.07a4.73,4.73,0,0,1,9.45,0v13.4h3.41V18.07a4.73,4.73,0,0,1,9.45,0v13.4h3.41V17.85Z"/><path class="cls-1" d="M139.64,17.85c-.13-4.38-4.16-7.91-9.11-7.91s-9,3.53-9.12,7.91h0V31.47h3.42V18.07c0-2.6,2.56-4.72,5.71-4.72s5.71,2.12,5.71,4.72v13.4h3.41V17.85Z"/><path class="cls-1" d="M194.45,10.61V24c0,2.61-2.56,4.72-5.71,4.72S183,26.62,183,24V10.61h-3.41V24.24h0c.13,4.38,4.16,7.91,9.11,7.91s9-3.53,9.11-7.91h0V10.61Z"/><rect class="cls-1" x="144.76" y="10.61" width="3.41" height="20.86"/><path class="cls-1" d="M164.68,9.94a11,11,0,0,0-7.7,3.12V3.24h-3.41V31.47H157V29a11.1,11.1,0,1,0,7.7-19.1Zm0,18.79A7.69,7.69,0,1,1,172.37,21,7.7,7.7,0,0,1,164.68,28.73Z"/><path class="cls-1" d="M146.46,2.05a2.7,2.7,0,1,0,2.7,2.69A2.71,2.71,0,0,0,146.46,2.05Z"/><path class="cls-1" d="M212.79,19.67l-3-.7c-2.58-.6-3.9-1.23-3.9-3.06,0-2,2.05-2.87,4.07-2.87a4.61,4.61,0,0,1,4.27,2.67l.12.21,3-2-.08-.18c-1.22-2.48-3.74-3.84-7.1-3.84-3.92,0-7.88,2-7.88,6.46,0,2,1,4.52,5.48,5.66l2.83.65c2.33.57,3.77,1.29,3.77,3.11,0,2.23-2.33,3.23-4.64,3.23a6,6,0,0,1-5.25-3l-.13-.2-2.89,2,.12.18a9.2,9.2,0,0,0,8.15,4.13c3.82,0,8.27-1.73,8.27-6.59C218,22.71,216,20.41,212.79,19.67Z"/><path class="cls-2" d="M24.28,18.07a6.22,6.22,0,1,1-6.22-6.22,6.22,6.22,0,0,1,6.22,6.22"/><path class="cls-3" d="M40.85,32.43a3.73,3.73,0,1,1-3.72-3.73,3.73,3.73,0,0,1,3.72,3.73"/><path class="cls-2" d="M0,18.07A18.07,18.07,0,1,0,18.06,0,18.09,18.09,0,0,0,0,18.07m6,0a12.1,12.1,0,1,1,12.1,12.1A12.11,12.11,0,0,1,6,18.07"/></g></g></svg>