<svg xmlns="http://www.w3.org/2000/svg" width="230" height="140" viewBox="0 0 230 140"><defs><style>.cls-1{fill:#e6e6e6;}.cls-2{fill:#fff;}.cls-3{fill:#0076c2;}.cls-4{fill:#e3007f;}</style></defs><g id="レイヤー_2" data-name="レイヤー 2"><g id="デザイン"><rect class="cls-1" width="230" height="140"/><path class="cls-2" d="M84.33,58.9A11.1,11.1,0,1,0,95.43,70,11.11,11.11,0,0,0,84.33,58.9Zm0,19.12a8,8,0,1,1,8-8A8,8,0,0,1,84.33,78Z"/><path class="cls-2" d="M121.59,69.82a6.41,6.41,0,0,0-11.48-3.74,6.41,6.41,0,0,0-11.48,3.74h0V80.57h2.69V70a3.73,3.73,0,1,1,7.45,0V80.57h2.7V70a3.73,3.73,0,1,1,7.45,0V80.57h2.69V69.82Z"/><path class="cls-2" d="M139.17,69.82c-.1-3.46-3.28-6.24-7.19-6.24s-7.08,2.78-7.19,6.24h0V80.57h2.7V70c0-2.06,2-3.73,4.5-3.73s4.52,1.67,4.52,3.73V80.57h2.69V69.82Z"/><path class="cls-2" d="M182.42,64.11V74.68c0,2.06-2,3.73-4.51,3.73s-4.51-1.67-4.51-3.73V64.11h-2.69V74.86h0c.11,3.46,3.29,6.24,7.19,6.24s7.09-2.78,7.19-6.24h0V64.11Z"/><rect class="cls-2" x="143.22" y="64.11" width="2.69" height="16.46"/><path class="cls-2" d="M158.93,63.58A8.7,8.7,0,0,0,152.86,66V58.3h-2.69V80.57h2.69V78.65a8.76,8.76,0,1,0,6.07-15.07Zm0,14.83A6.07,6.07,0,1,1,165,72.34,6.08,6.08,0,0,1,158.93,78.41Z"/><path class="cls-2" d="M144.56,57.35a2.13,2.13,0,1,0,2.12,2.13A2.13,2.13,0,0,0,144.56,57.35Z"/><path class="cls-2" d="M196.89,71.26l-2.34-.56c-2-.46-3.08-1-3.08-2.41S193.09,66,194.68,66a3.65,3.65,0,0,1,3.37,2.11l.09.17,2.35-1.55-.06-.14c-1-2-3-3-5.61-3-3.09,0-6.21,1.58-6.21,5.1,0,1.54.75,3.57,4.32,4.46l2.23.52c1.84.45,3,1,3,2.45,0,1.76-1.85,2.55-3.67,2.55a4.78,4.78,0,0,1-4.14-2.36l-.1-.16L188,77.7l.09.14a7.26,7.26,0,0,0,6.43,3.26c3,0,6.53-1.36,6.53-5.2A4.87,4.87,0,0,0,196.89,71.26Z"/><path class="cls-3" d="M48.15,70a4.9,4.9,0,1,1-4.9-4.9,4.9,4.9,0,0,1,4.9,4.9"/><path class="cls-4" d="M61.23,81.33a2.94,2.94,0,1,1-2.94-3,2.93,2.93,0,0,1,2.94,3"/><path class="cls-3" d="M29,70A14.26,14.26,0,1,0,43.25,55.74,14.27,14.27,0,0,0,29,70m4.71,0a9.55,9.55,0,1,1,9.54,9.55A9.55,9.55,0,0,1,33.71,70"/></g></g></svg>