<svg xmlns="http://www.w3.org/2000/svg" width="200" height="200" viewBox="0 0 200 200"><defs><style>.cls-1{fill:#2a76c8;}.cls-2{fill:none;stroke:#2a76c8;stroke-miterlimit:10;}</style></defs><g id="レイヤー_2" data-name="レイヤー 2"><g id="svg"><path class="cls-1" d="M100,1A99,99,0,1,1,1,100,99.11,99.11,0,0,1,100,1m0-1A100,100,0,1,0,200,100,100,100,0,0,0,100,0Z"/><path class="cls-1" d="M67.91,72.68a2.81,2.81,0,0,0,1.61,1.44,10.67,10.67,0,0,0,3.33.34c2.32,0,5-.12,7.7-.39a3.32,3.32,0,0,0-.45,1.35C80,76,80,76,79.44,76c-2.29.13-4.43.18-6.31.18a12.46,12.46,0,0,1-4.21-.49,3.67,3.67,0,0,1-1.87-1.58,17,17,0,0,1-1.71,1.53,1.7,1.7,0,0,0-.43.38.25.25,0,0,1-.24.14c-.09,0-.18-.09-.25-.23a16.85,16.85,0,0,1-.74-1.66,6.76,6.76,0,0,0,1.06-.57,8.89,8.89,0,0,0,1.41-1.14v-4h-.79c-.94,0-1.19,0-1.28,0s-.22,0-.22-.21V67c0-.18,0-.2.22-.2s.34,0,1.28,0h1.06c1,0,1.24,0,1.33,0s.2,0,.2.2,0,.63,0,1.74ZM65.43,60.82a.3.3,0,0,1,.21-.09.18.18,0,0,1,.17.09,14.31,14.31,0,0,1,2.32,2.73c.11.15.09.2-.09.36l-1,.81c-.11.09-.18.13-.24.13s-.09,0-.14-.13a15.5,15.5,0,0,0-2.31-2.91c-.12-.15-.1-.18.09-.31Zm5.87,5.29a19.56,19.56,0,0,0-.13-2.77,14.69,14.69,0,0,1,1.84.18c.18,0,.29.1.29.19a1,1,0,0,1-.11.35,7.5,7.5,0,0,0-.11,2v.61h.29c1.42,0,1.87,0,2,0s.2,0,.2.2v1.35c0,.18,0,.2-.2.2s-.56,0-2,0h-.29V71c0,1.54,0,2.26,0,2.36s0,.2-.18.2H71.46c-.18,0-.2,0-.2-.2s0-.82,0-2.36V68.34h-.51c-1.4,0-1.85,0-2,0s-.21,0-.21-.2V66.83c0-.18,0-.2.21-.2s.56,0,2,0h.51Zm-.15-3.42c-1.63,0-2.19,0-2.3,0s-.2,0-.2-.19V61.16c0-.18,0-.2.2-.2s.67,0,2.3,0h4.13c1.64,0,2.21,0,2.32,0s.22,0,.22.22c0,.79,0,1.62,0,2.41a52,52,0,0,0,.34,5.78c.2,1.53.4,2,.58,2s.25-.45.38-2.16a3.85,3.85,0,0,0,1,.63c.33.14.33.19.27.66-.21,2.25-.91,2.88-1.72,2.88-1,0-1.86-1-2.25-3.6a47.61,47.61,0,0,1-.4-7.09Z"/><path class="cls-1" d="M87.3,72.68a2.76,2.76,0,0,0,1.6,1.46,11.59,11.59,0,0,0,3.33.32c2.33,0,5-.1,7.71-.37a3,3,0,0,0-.45,1.33c-.09.57-.09.57-.67.61-2.28.13-4.43.16-6.3.16a12.53,12.53,0,0,1-4.21-.47,3.67,3.67,0,0,1-1.87-1.58,22.14,22.14,0,0,1-1.72,1.53,2.48,2.48,0,0,0-.43.38.24.24,0,0,1-.23.12c-.09,0-.18-.07-.25-.21a14.79,14.79,0,0,1-.74-1.66,6.15,6.15,0,0,0,1.06-.57,8.76,8.76,0,0,0,1.42-1.14v-4h-.81c-.93,0-1.19,0-1.28,0s-.21,0-.21-.21V67c0-.18,0-.2.21-.2s.35,0,1.28,0H85.8c1,0,1.25,0,1.34,0s.19,0,.19.2,0,.63,0,1.74Zm-2.54-12A.35.35,0,0,1,85,60.6a.21.21,0,0,1,.16.09,13.59,13.59,0,0,1,2.25,2.63c.09.14.09.2-.09.34l-1,.85a.32.32,0,0,1-.22.12s-.09,0-.16-.12A14.16,14.16,0,0,0,83.7,61.7c-.13-.13-.09-.18.09-.31Zm10.41,8.19a9.64,9.64,0,0,0,4.54,2.63A4.54,4.54,0,0,0,99,72.77c-.11.33-.16.45-.29.45a1.1,1.1,0,0,1-.45-.16,9.46,9.46,0,0,1-4.1-3.4c0,1.83.11,3.47.11,4,0,.18,0,.2-.2.2H92.72c-.18,0-.2,0-.2-.2,0-.45,0-2,.07-3.78A10.2,10.2,0,0,1,89.21,73c-.22.12-.34.21-.43.21s-.2-.14-.36-.43a4.23,4.23,0,0,0-.83-1,9.3,9.3,0,0,0,4-2.92h-.4c-1.67,0-2.26,0-2.37,0s-.2,0-.2-.2,0-.45,0-1.33V66c0-.85,0-1.19,0-1.3s0-.2.2-.2.7,0,2.37,0h1.32V63.37h-2c-1.76,0-2.37,0-2.48,0s-.2,0-.2-.22V62c0-.16,0-.18.2-.18s.72,0,2.48,0h2v-.09a7.33,7.33,0,0,0-.13-1.62c.65,0,1.15,0,1.77.09.16,0,.29.09.29.19a.66.66,0,0,1-.11.29,3.06,3.06,0,0,0-.11,1.06v.08H96.7c1.76,0,2.37,0,2.48,0s.2,0,.2.18v1.24c0,.2,0,.22-.2.22s-.72,0-2.48,0H94.25v1.14H95.8c1.65,0,2.23,0,2.36,0s.19,0,.19.2,0,.45,0,1.3v1.42c0,.88,0,1.22,0,1.33s0,.2-.19.2-.71,0-2.36,0Zm-2.63-1.31V65.86h-2.2v1.71Zm4.09-1.71H94.25v1.71h2.38Z"/><path class="cls-1" d="M104.39,66.31a.25.25,0,0,1,.18-.09.19.19,0,0,1,.16.09c.72.72,1.44,1.46,2.13,2.21a15.67,15.67,0,0,0,.64-3.76H105c-1.55,0-2.07,0-2.18,0s-.2,0-.2-.21V63.23c0-.18,0-.2.2-.2s.63,0,2.18,0H106V61.91a7.37,7.37,0,0,0-.15-1.74,17.49,17.49,0,0,1,1.91.12c.18,0,.29.08.29.18a1.06,1.06,0,0,1-.11.36,3.54,3.54,0,0,0-.09,1.08v1.16h.52c1.57,0,2.09,0,2.2,0s.2,0,.2.2v1.35c0,.2,0,.21-.2.21l-1.15,0a18.46,18.46,0,0,1-1.14,5.33C109,71,109.68,72,110.35,73c.11.14.13.2-.06.38l-1.06,1c-.07.07-.14.13-.2.13s-.09-.06-.16-.17c-.47-.82-1-1.62-1.51-2.39a17,17,0,0,1-3.26,3.91c-.18.16-.29.25-.38.25s-.19-.13-.36-.38a3.65,3.65,0,0,0-1-1.06,12.19,12.19,0,0,0,3.71-4.36,29.52,29.52,0,0,0-2.63-2.79c-.14-.11-.14-.16,0-.32Zm7.51.86c.18-.11.25-.11.36,0a13.49,13.49,0,0,1,2.09,3.36c.07.18.05.24-.13.35l-1.15.66c-.22.13-.25.11-.33-.07a15.1,15.1,0,0,0-2-3.4c-.12-.16-.09-.22.09-.33ZM117,70.74c0,1.26,0,2.63,0,3.63s-.11,1.32-.56,1.7-1.12.39-2.86.39c-.54,0-.54,0-.67-.54a4.47,4.47,0,0,0-.54-1.35c.7.06,1.51.07,2,.06s.67-.15.67-.58V65.8h-1.73c-1.51,0-2,0-2.12,0s-.2,0-.2-.2V64.18c0-.18,0-.2.2-.2s.61,0,2.12,0h1.73V62.74A20.41,20.41,0,0,0,115,60.2c.65,0,1.31.06,1.91.11.18,0,.29.11.29.2a.94.94,0,0,1-.11.38,5.47,5.47,0,0,0-.11,1.82V64c1.14,0,1.57,0,1.66,0s.2,0,.2.2v1.46c0,.18,0,.2-.2.2l-1.66,0Z"/><path class="cls-1" d="M124.24,66a36.09,36.09,0,0,1-.34,5.69,13.32,13.32,0,0,1-1.37,4.25c-.12.24-.2.34-.29.34s-.2-.09-.36-.28a4.94,4.94,0,0,0-1.17-1,10.64,10.64,0,0,0,1.37-4,32.16,32.16,0,0,0,.29-5.33c0-2.2,0-3.19,0-3.29s0-.2.22-.2.7,0,2.41,0h3.62v-.75a7.29,7.29,0,0,0-.11-1.46c.67,0,1.3.05,1.91.11.18,0,.29.09.29.18a.8.8,0,0,1-.11.34,1.81,1.81,0,0,0-.12.77v.81h3.85c1.69,0,2.29,0,2.39,0s.2,0,.2.2V63.7c0,.16,0,.18-.2.18s-.7,0-2.39,0h-10Zm2.81,3c.23,0,.27.07.23.28a18,18,0,0,1-1.33,5c-.09.17-.16.13-.38,0l-1.22-.58c-.22-.1-.22-.19-.13-.36a14.21,14.21,0,0,0,1.35-4.53c0-.2.06-.2.33-.13Zm2.86,4.53c0,.6,0,.78.26.94a2.11,2.11,0,0,0,1.15.18,2,2,0,0,0,1.28-.27c.34-.29.43-.92.46-2.31a4.73,4.73,0,0,0,1.3.53c.49.11.49.11.43.59-.14,1.6-.47,2.25-1,2.63a4.62,4.62,0,0,1-2.56.47,4.72,4.72,0,0,1-2.61-.45c-.36-.27-.51-.63-.51-1.62V69.89a19.47,19.47,0,0,0-.12-2.16c.57,0,1.3.07,1.84.14.21,0,.36.11.36.24a.77.77,0,0,1-.15.39,4.68,4.68,0,0,0-.11,1.44Zm-.84-9.22c.16-.18.18-.19.36-.1a19,19,0,0,1,3.42,2.23c.09,0,.12.11.12.14s0,.11-.12.22l-.85,1c-.18.22-.21.22-.34.09a19.29,19.29,0,0,0-3.35-2.39c-.12-.08-.16-.11,0-.29Zm6.84,9.51c-.25.13-.29.13-.34-.07A22.11,22.11,0,0,0,133.68,69c-.09-.16-.08-.21.16-.32l1.08-.49c.22-.1.25-.1.34.06a21.88,21.88,0,0,1,2,4.75c.05.2,0,.22-.22.34Z"/><path class="cls-1" d="M48.06,94.68c.12-.06.15-.06.21,0a12.23,12.23,0,0,1,1,2.4c.05.11,0,.14-.12.19l-.32.13c-.19.07-.21.06-.24-.06l-.25-.8-1.28.15v3.75c0,1.53,0,2,0,2s0,.1-.11.1h-.63c-.1,0-.12,0-.12-.1s0-.51,0-2V96.8l-1.45.11a1.74,1.74,0,0,0-.54.11.3.3,0,0,1-.15.07c-.08,0-.13-.08-.15-.2a5.94,5.94,0,0,1-.13-.75,6.92,6.92,0,0,0,.91,0h.14c.38-.48.73-1,1.06-1.48a20.73,20.73,0,0,0-2-2.14c-.09-.07-.09-.1,0-.25l.22-.31c.1-.13.13-.13.21-.06l.55.54a15.56,15.56,0,0,0,1-1.71,4.43,4.43,0,0,0,.3-.8,4.3,4.3,0,0,1,.76.34c.13.07.15.11.15.16s-.05.12-.12.17a1,1,0,0,0-.24.3c-.49.84-.87,1.41-1.33,2.07.32.34.63.69.94,1,.36-.57.71-1.15,1.06-1.75a4,4,0,0,0,.42-1,6,6,0,0,1,.76.37c.1.06.14.1.14.17s0,.13-.13.18a2.31,2.31,0,0,0-.5.65c-.78,1.25-1.54,2.39-2.33,3.42.73,0,1.47-.09,2.29-.17-.14-.34-.3-.66-.46-1-.06-.1-.05-.11.14-.2Zm-2.59,3.61a1,1,0,0,0-.14.51,13.29,13.29,0,0,1-.59,2.59c0,.14-.07.2-.14.2a.82.82,0,0,1-.23-.12,1.59,1.59,0,0,0-.46-.19,9.72,9.72,0,0,0,.67-2.64,3.87,3.87,0,0,0,.05-.81l.7.14c.14,0,.21.09.21.16A.28.28,0,0,1,45.47,98.29Zm2.71-.46c.14,0,.16,0,.2.07a13.33,13.33,0,0,1,.69,2.54c0,.11,0,.14-.13.18l-.34.1c-.19,0-.23,0-.25,0a11.72,11.72,0,0,0-.61-2.58c0-.1,0-.14.15-.18Zm7.51-.7c0,4.26,0,4.89,0,5s0,.11-.11.11H55c-.1,0-.12,0-.12-.11v-.74H50.38v.81c0,.1,0,.11-.11.11h-.6c-.1,0-.11,0-.11-.11s0-.73,0-4.93V94.6c0-2.62,0-3.3,0-3.37s0-.11.11-.11.49,0,1.71,0h2.5c1.22,0,1.64,0,1.73,0s.11,0,.11.11,0,.72,0,3Zm-3.5-5.22H50.38v4h1.81Zm0,4.7H50.38v4h1.81Zm2.7-4.7H53v4h1.92Zm0,4.7H53v4h1.92Z"/><path class="cls-1" d="M65.13,93.45a7.76,7.76,0,0,1,2.66-.53c1.61,0,2.63.85,2.63,2.33,0,1.74-1.43,2.6-3.44,2.6a4.72,4.72,0,0,1-.66,0c-.14,0-.19-.06-.23-.14a2.61,2.61,0,0,0-.4-.8,6.89,6.89,0,0,0,1.24.11c1.4,0,2.48-.54,2.48-1.81s-.85-1.42-1.62-1.42a6.64,6.64,0,0,0-2.23.4c-.92.31-1.79.67-2.65,1,.79,2.24,1.52,4.28,2.27,6.5.06.14.06.18-.08.25a2.58,2.58,0,0,1-.69.25c-.08,0-.1,0-.12-.08-.72-2.31-1.36-4.29-2.19-6.54l-1.65.73a3.07,3.07,0,0,0-.76.43.33.33,0,0,1-.21.11.34.34,0,0,1-.24-.14,5.29,5.29,0,0,1-.59-.87,8.83,8.83,0,0,0,1.42-.4c.53-.21,1-.38,1.71-.68-.17-.5-.34-1-.55-1.54a5.69,5.69,0,0,0-.67-1.29,6.75,6.75,0,0,1,1.19-.12c.17,0,.18.08.18.21a1.18,1.18,0,0,0,0,.4c.05.19.12.4.28.93s.26.71.37,1.05C63.49,94,64.24,93.74,65.13,93.45ZM64.9,90.6c.09,0,.11,0,.21,0a7.28,7.28,0,0,1,1.51,1.33.16.16,0,0,1,0,.22,3,3,0,0,1-.53.46s-.12,0-.18,0a5.87,5.87,0,0,0-1.65-1.48C64.5,90.88,64.75,90.7,64.9,90.6Z"/><path class="cls-1" d="M77.36,92.05a5.07,5.07,0,0,0,.13-1.35,5.58,5.58,0,0,1,1.09.38.2.2,0,0,1,.06.36,1,1,0,0,0-.24.47c-.21.68-.39,1.34-.6,2a11.94,11.94,0,0,1,1.36-.1c1.21,0,1.82.62,1.82,2.25a11.78,11.78,0,0,1-.77,4.53,1.68,1.68,0,0,1-1.6,1.11,3.58,3.58,0,0,1-1.43-.26.23.23,0,0,1-.17-.23,2.28,2.28,0,0,0-.17-.84,4.22,4.22,0,0,0,1.63.39c.41,0,.67-.14.94-.73A10.59,10.59,0,0,0,80,96.12c0-1.09-.21-1.48-1-1.48a10.42,10.42,0,0,0-1.51.15,37.4,37.4,0,0,1-2.86,6.63.17.17,0,0,1-.24.07,4,4,0,0,1-.56-.38.15.15,0,0,1,0-.22,29.84,29.84,0,0,0,2.68-6c-.57.08-1.14.18-1.84.31a1.93,1.93,0,0,0-.62.18c-.16.1-.28.1-.37-.07a5.79,5.79,0,0,1-.32-1,11,11,0,0,0,1.46-.07c.77-.09,1.32-.17,2-.27C77,93.39,77.18,92.83,77.36,92.05ZM82.5,93.2a.17.17,0,0,1,.21,0A8,8,0,0,1,85,96.64c0,.1,0,.17,0,.24a3.22,3.22,0,0,1-.58.38c-.11.07-.21,0-.24-.09a7.65,7.65,0,0,0-2.24-3.54A6.38,6.38,0,0,1,82.5,93.2Z"/><path class="cls-1" d="M93.2,92.69c.13,0,.17,0,.19.09s0,.42.07.6,0,.15-.13.17c-.76.15-1.51.28-2.34.4a32.91,32.91,0,0,1-2.82,5.91c-.07.12-.14.1-.22,0a2.92,2.92,0,0,1-.56-.42c-.08-.07-.08-.12,0-.23A24.76,24.76,0,0,0,90,94c-.6,0-1.16.09-1.77.09-.21,0-.42,0-.74,0-.12,0-.14,0-.17-.17a4.23,4.23,0,0,1-.08-.7c.45,0,.81.05,1.11.05a17.88,17.88,0,0,0,1.9-.11,15.09,15.09,0,0,0,.42-1.64,3.64,3.64,0,0,0,.11-1.09,6,6,0,0,1,1.1.28.16.16,0,0,1,.12.15.29.29,0,0,1-.11.21,1.54,1.54,0,0,0-.2.44c-.15.5-.3,1-.44,1.51A17.41,17.41,0,0,0,93.2,92.69Zm.86,3.39a4.48,4.48,0,0,0-.09-.9,4.94,4.94,0,0,1,1,.19.17.17,0,0,1,.15.16.87.87,0,0,1-.08.26,2,2,0,0,0-.06.66A22.93,22.93,0,0,0,95.11,99a12.35,12.35,0,0,1,2.65,1.4c.11.07.09.12,0,.23a4.56,4.56,0,0,1-.33.61c-.07.1-.14.09-.23,0A8.34,8.34,0,0,0,95.12,100c0,1.41-.7,2.18-2.5,2.18-1.07,0-2.18-.54-2.18-1.71s1-1.76,2.39-1.76a6.86,6.86,0,0,1,1.4.17C94.14,98,94.07,96.84,94.06,96.08Zm-1.19,3.35c-1.12,0-1.63.43-1.63.95s.52.94,1.45.94c1.14,0,1.56-.6,1.56-1.32a2.56,2.56,0,0,0,0-.33A4.59,4.59,0,0,0,92.87,99.43Zm2.38-6.28c.07-.11.11-.12.24-.08a9.64,9.64,0,0,1,2.74,1.32c.1.08.1.14,0,.25a3.86,3.86,0,0,1-.32.56c-.07.1-.11.08-.2,0a9.36,9.36,0,0,0-2.86-1.43C95,93.56,95.14,93.32,95.25,93.15Z"/><path class="cls-1" d="M103.78,99.82a2.2,2.2,0,0,0,1.25,1.35,8.57,8.57,0,0,0,2.9.36c1.79,0,3.72-.08,5.8-.28a1.06,1.06,0,0,0-.26.57c0,.28,0,.28-.33.31-1.81.11-3.49.17-4.91.17a9.54,9.54,0,0,1-3.51-.46,2.62,2.62,0,0,1-1.33-1.37,15.27,15.27,0,0,1-1.49,1.34,1.5,1.5,0,0,0-.31.29c0,.09-.11.13-.16.13s-.12,0-.17-.13a4.71,4.71,0,0,1-.39-.71,5.45,5.45,0,0,0,.86-.52,8.17,8.17,0,0,0,1.24-1.1V96.26h-1c-.71,0-.89,0-1,0s-.13,0-.13-.12v-.61c0-.1,0-.11.13-.11s.24,0,1,0h.73c.73,0,.93,0,1,0s.11,0,.11.11,0,.44,0,1.33Zm-1.89-9.19c.15-.1.17-.11.25,0a12.82,12.82,0,0,1,1.6,2c.05.09,0,.12-.1.23l-.34.27c-.18.12-.19.12-.26,0a10.76,10.76,0,0,0-1.56-2c-.08-.07-.07-.08.09-.19ZM113,91.72c0,1.08,0,1.21,0,1.29s0,.1-.12.1h-.6c-.1,0-.11,0-.11-.1V91.37h-7.09V93c0,.09,0,.1-.11.1h-.59c-.1,0-.11,0-.11-.1s0-.21,0-1.29v-.35c0-.36,0-.53,0-.61s0-.11.11-.11.58,0,2,0H111c1.41,0,1.91,0,2,0s.12,0,.12.11,0,.25,0,.54Zm0,7.82c0,.1,0,.11-.12.11s-.54,0-2,0h-2v.06c0,.8,0,1.11,0,1.19s0,.11-.11.11h-.59c-.08,0-.11,0-.11-.11s0-.39,0-1.19v-.06h-1.74c-1.4,0-1.88,0-2,0s-.11,0-.11-.11V99c0-.1,0-.11.11-.11s.56,0,2,0h1.74v-.88h-1c-1.29,0-1.74,0-1.82,0s-.1,0-.1-.11,0-.36,0-1.19V95.39c0-.82,0-1.1,0-1.17s0-.11.1-.11.53,0,1.82,0h1v-.85h-1c-1.11,0-1.53,0-1.6,0s-.11,0-.11-.11v-.49c0-.1,0-.12.11-.12s.49,0,1.6,0h1a4.69,4.69,0,0,0-.09-.94c.32,0,.53,0,.83.07.08,0,.15,0,.15.1a.42.42,0,0,1,0,.2,1,1,0,0,0-.09.51v.06h1.22c1.11,0,1.53,0,1.6,0s.11,0,.11.12v.49c0,.09,0,.11-.11.11s-.49,0-1.6,0H109v.85h1.18c1.29,0,1.74,0,1.82,0s.11,0,.11.11,0,.35,0,1.17v1.39c0,.83,0,1.11,0,1.19s0,.11-.11.11-.53,0-1.82,0H109v.88h2c1.42,0,1.89,0,2,0s.12,0,.12.11Zm-4.79-4.79H106v1h2.18Zm0,1.6H106v1.09h2.18Zm3.08-1.6H109v1h2.33Zm0,1.6H109v1.09h2.33Z"/><path class="cls-1" d="M125.46,90.81c1.41,0,1.92,0,2,0s.11,0,.11.11,0,.74,0,2.2v6.22c0,.64,0,1.29,0,1.87a1.09,1.09,0,0,1-.41,1c-.26.2-.61.28-1.73.28-.3,0-.3,0-.35-.28a1.73,1.73,0,0,0-.26-.64c.48,0,.79,0,1.39,0,.35,0,.49-.18.49-.56v-3h-3.92v1.66c0,1.59,0,2.24,0,2.33s0,.11-.11.11H122c-.09,0-.11,0-.11-.11s0-.74,0-2.33V98.06h-3.75a7.82,7.82,0,0,1-1.43,4.17c-.09.11-.12.17-.17.17s-.1,0-.2-.14a2.13,2.13,0,0,0-.59-.35c1.12-1.42,1.64-2.86,1.64-6.71V93.1c0-1.46,0-2.13,0-2.2s0-.11.12-.11.57,0,2,0Zm-3.53,4h-3.64v.38c0,.8,0,1.5-.06,2.1h3.7Zm0-3.24h-3.64v2.48h3.64Zm4.76,0h-3.92v2.48h3.92Zm0,3.24h-3.92V97.3h3.92Z"/><path class="cls-1" d="M131.83,99.05c0,.45,0,.7.13.81a2.42,2.42,0,0,0,1.35.23c.87,0,1.33-.09,1.57-.34s.35-.71.42-1.72a2.07,2.07,0,0,0,.53.28c.27.11.29.11.24.38a2.4,2.4,0,0,1-.64,1.72,5.68,5.68,0,0,1-4.12.14c-.22-.21-.31-.46-.31-1.15V96.23c0-.91,0-1.31,0-1.4s0-.11.12-.11.44,0,1.3,0h2.17V91.92h-2.35c-1,0-1.33,0-1.4,0s-.12,0-.12-.11v-.59c0-.1,0-.11.12-.11s.39,0,1.41,0h1.63c1.05,0,1.38,0,1.45,0s.12,0,.12.11,0,.38,0,1.36v2.17c0,1,0,1.27,0,1.34s0,.11-.12.11h-.63c-.1,0-.11,0-.11-.11v-.6h-2.73Zm11-5.62c0,.1,0,.12-.11.12s-.42,0-1.36,0a12,12,0,0,1-1.64,5.35,12.62,12.62,0,0,0,3.49,2.9,1.72,1.72,0,0,0-.46.5c-.09.13-.13.18-.2.18a.35.35,0,0,1-.22-.09,14.53,14.53,0,0,1-3.09-2.82,9.47,9.47,0,0,1-3.72,2.91.61.61,0,0,1-.23.07c-.07,0-.09,0-.18-.15a2.26,2.26,0,0,0-.46-.5,9.59,9.59,0,0,0,4.09-3A12.14,12.14,0,0,1,137.12,95a11.31,11.31,0,0,1-.82,1.4c-.09.12-.13.17-.17.17s-.1,0-.18-.15a1.19,1.19,0,0,0-.44-.34,12.59,12.59,0,0,0,2.16-4.87,6.87,6.87,0,0,0,.17-1.25,6.42,6.42,0,0,1,.84.21c.11,0,.18.08.18.15s0,.1-.1.19a2.5,2.5,0,0,0-.24.7c-.15.53-.3,1.05-.49,1.58h3c1.23,0,1.63,0,1.71,0s.11,0,.11.11Zm-5.1.09-.14.36a11.83,11.83,0,0,0,1.61,4.29,10.28,10.28,0,0,0,1.31-4.65Z"/><path class="cls-1" d="M157.05,98c0,.1,0,.12-.11.12s-.52,0-1.84,0h-8.35c-1.31,0-1.76,0-1.83,0s-.11,0-.11-.12v-.53c0-.1,0-.11.11-.11s.52,0,1.83,0h1.1a7.78,7.78,0,0,0-.69-1.08c-.07-.1-.07-.1.1-.17l.36-.15c.14-.06.17-.06.24,0a8.28,8.28,0,0,1,.88,1.38h1.66V95.66h-3.55c-1.34,0-1.78,0-1.85,0s-.11,0-.11-.11V95c0-.09,0-.11.11-.11s.51,0,1.85,0h3.55V93.88h-1.89c-1.42,0-1.9,0-2,0s-.1,0-.1-.11v-.51c0-.09,0-.11.1-.11s.56,0,2,0h1.89v-1h-2.65c-1.42,0-1.88,0-2,0s-.11,0-.11-.11v-.52c0-.1,0-.11.11-.11s.54,0,2,0h1.05a7.73,7.73,0,0,0-.81-1.1c-.07-.08-.11-.11.07-.19l.39-.2c.13,0,.15,0,.22,0a8.44,8.44,0,0,1,1.08,1.47h2.16a9.28,9.28,0,0,0,.63-1,2.84,2.84,0,0,0,.22-.56,4.83,4.83,0,0,1,.76.25c.1,0,.15.08.14.15s-.06.11-.13.16a.89.89,0,0,0-.26.28c-.13.19-.3.44-.51.7h1.39c1.42,0,1.88,0,1.95,0s.11,0,.11.11v.52c0,.1,0,.11-.11.11s-.53,0-1.95,0h-2.91v1h2.13c1.41,0,1.89,0,2,0s.12,0,.12.11v.51c0,.1,0,.11-.12.11s-.55,0-2,0h-2.13V95h3.81c1.34,0,1.78,0,1.86,0s.11,0,.11.11v.54c0,.09,0,.11-.11.11s-.52,0-1.86,0h-3.81V97.4H153a7,7,0,0,0,.52-.83,2.71,2.71,0,0,0,.24-.57,4.16,4.16,0,0,1,.77.23.16.16,0,0,1,.11.15c0,.07-.05.11-.12.15a1.08,1.08,0,0,0-.26.29,4.53,4.53,0,0,1-.39.58h1.26c1.32,0,1.75,0,1.84,0s.11,0,.11.11Zm-2,2.74c0,1.45,0,1.69,0,1.76s0,.11-.11.11h-.63c-.1,0-.11,0-.11-.11V102H147.6v.56c0,.08,0,.1-.12.1h-.63c-.1,0-.11,0-.11-.1s0-.31,0-1.79v-.65c0-.63,0-.9,0-1s0-.11.11-.11.56,0,2,0h4.25c1.4,0,1.88,0,2,0s.11,0,.11.11,0,.34,0,.85Zm-.82-1H147.6v1.55h6.68Z"/><line class="cls-2" x1="57.5" y1="125" x2="134.32" y2="125"/><polygon class="cls-1" points="132.87 129.99 141.5 125 132.87 120.01 132.87 129.99"/><line class="cls-2" x1="141.5" y1="139" x2="64.68" y2="139"/><polygon class="cls-1" points="66.14 134.01 57.5 139 66.14 143.99 66.14 134.01"/></g></g></svg>