<svg id="_3month_free.svg" data-name="3month_free.svg" xmlns="http://www.w3.org/2000/svg" width="164.531" height="59.28" viewBox="0 0 164.531 59.28">
  <defs>
    <style>
      .cls-1 {
        fill: #9a8953;
        fill-rule: evenodd;
      }
    </style>
  </defs>
  <path id="_約3ヵ月分無料_" data-name="　　　　　約3ヵ月分無料！" class="cls-1" d="M306.441,5206.02c-0.277.18-.553,0.34-0.828,0.49,0.511,0.54.879,0.91,1.1,1.1a0.5,0.5,0,0,0,.509.19,0.58,0.58,0,0,0,.066-0.63c0.636-.56,1.112-1,1.428-1.31l1.858,2.93q1.214,1.92,2.005,3.36a0.574,0.574,0,0,0,.9.08q0.8-.51.435-1.08l-2.788-4.3-1.331-2.11c0.367-.4.636-0.71,0.809-0.94l0.123,0.17a2.843,2.843,0,0,0,.762.77,0.535,0.535,0,0,0,.587-0.06,0.694,0.694,0,0,0,.331-0.51,1.233,1.233,0,0,0-.217-0.82c-0.471-.74-1.564-1.05-3.28-0.94a0.089,0.089,0,0,0-.042.02q-0.111.075-.06,0.15a0.183,0.183,0,0,0,.027.03,4.432,4.432,0,0,1,1.479.87c-1.133.77-1.987,1.34-2.561,1.7q0.454-1.515.607-2.19c0.1-.47.262-1.47,0.479-2.99l0.089-.05c0.331-.21.452-0.39,0.361-0.54s-0.882-.13-2.345.07a10.792,10.792,0,0,1,.3,2,26.255,26.255,0,0,1,.039,4.01Zm9.194-9.87a42.389,42.389,0,0,1,4.311,8.44,0.669,0.669,0,0,1-.018.53,2.859,2.859,0,0,1-.9.74c-0.287.18-.9,0.52-1.835,1-0.039.02-.034,0.08,0.016,0.15s0.094,0.11.139,0.09a6.431,6.431,0,0,1,1.5-.3,1.317,1.317,0,0,1,.968.43,0.916,0.916,0,0,0,.335.26,0.464,0.464,0,0,0,.371-0.12,2.645,2.645,0,0,0,1.056-1.15,2.771,2.771,0,0,0,.036-2.1,28.137,28.137,0,0,0-1.548-3.61q-0.9-1.785-2.7-4.84a1.3,1.3,0,0,0,.18-0.75,1.044,1.044,0,0,0-.669-0.25,3.009,3.009,0,0,0-1.266-.09,2.867,2.867,0,0,0-.34,1.32l-3.6,2.28a18.044,18.044,0,0,0-.3-2.56c0.357-.32.481-0.57,0.371-0.74q-0.174-.285-2.592.51a12.487,12.487,0,0,1,.879,2.19,17.143,17.143,0,0,1,.89,4.72,0.033,0.033,0,0,0,.007.02c0.041,0.07.106,0.07,0.195,0.02a0.11,0.11,0,0,0,.035-0.05,10.95,10.95,0,0,0,.52-3.63Zm-12.352,5.97c-0.083.04-.1,0.09-0.054,0.16a0.056,0.056,0,0,0,.05.03,4.379,4.379,0,0,1,2.042,1.01,3.874,3.874,0,0,0,.791.59,0.692,0.692,0,0,0,.6-0.13,0.77,0.77,0,0,0,.358-0.52,1.152,1.152,0,0,0-.2-0.82,1.652,1.652,0,0,0-1.45-.69,23.224,23.224,0,0,0,.62-2.85q0.6-.375.441-0.63c-0.129-.21-0.929-0.14-2.4.2a8,8,0,0,1,.366,1.07,18.37,18.37,0,0,1,.475,2.22,12.315,12.315,0,0,0-1.635.36h0Zm11.776-1.18a5.049,5.049,0,0,0-2.6.13,0.014,0.014,0,0,1-.015.01,0.1,0.1,0,0,0-.032.15,0.107,0.107,0,0,0,.047.04,4.3,4.3,0,0,1,1.265.55,12.187,12.187,0,0,1,1.6,1.28,0.781,0.781,0,0,0,1.033.28,0.874,0.874,0,0,0,.4-0.63,1.27,1.27,0,0,0-.206-0.9,2.211,2.211,0,0,0-1.495-.91h0Zm-4.052,4.91a0.1,0.1,0,0,0-.054.02,0.086,0.086,0,0,0-.042.13,0.039,0.039,0,0,0,.034.02,5.493,5.493,0,0,1,1.978,1.63,3.764,3.764,0,0,0,.82.83,0.548,0.548,0,0,0,.624,0,0.785,0.785,0,0,0,.362-0.56,1.3,1.3,0,0,0-.226-0.87q-0.777-1.215-3.5-1.2h0Zm-1.649,1.71a17.42,17.42,0,0,0-1.744.44,2.553,2.553,0,0,0,.148.25,8.325,8.325,0,0,1,.73,1.44,14.3,14.3,0,0,1,.963,3.4,0.076,0.076,0,0,0,.006.03,0.1,0.1,0,0,0,.158.03,0.054,0.054,0,0,0,.035-0.04,10.137,10.137,0,0,0-.191-4.91,0.5,0.5,0,0,0,.247-0.57,0.33,0.33,0,0,0-.352-0.07h0Zm18.758-16.55q3.105-2.445,1.8-5.26a3.763,3.763,0,0,0-2.294-2.12,4.943,4.943,0,0,0-3.749.39,5.5,5.5,0,0,0-2.628,2.43,3.132,3.132,0,0,0-.336,2.81c0.217,0.47.658,0.54,1.324,0.24a2.45,2.45,0,0,0,.987-0.77,1.088,1.088,0,0,0,.121-1.13,3.34,3.34,0,0,1-.339-1.18,1.851,1.851,0,0,1,1.182-1.73,1.622,1.622,0,0,1,1.667.19,5.536,5.536,0,0,1,2.076,4.82,2.309,2.309,0,0,1-1.328,1.71l-0.859.32a0.5,0.5,0,0,0-.182.69,1.352,1.352,0,0,0,.072.24,0.228,0.228,0,0,0,.343.1c0.092-.05.41-0.21,0.953-0.51a2.126,2.126,0,0,1,.218-0.11,2.444,2.444,0,0,1,2.476.15,4.888,4.888,0,0,1,1.8,2.17,7.048,7.048,0,0,1,.788,3.11,2.186,2.186,0,0,1-1.245,2.11,1.886,1.886,0,0,1-2.256-.52q-0.807-.735-0.895-0.78a1.237,1.237,0,0,0-1.267-.23,2.4,2.4,0,0,0-.986.75,0.858,0.858,0,0,0-.142.91,2.638,2.638,0,0,0,2.264,1.17,6.943,6.943,0,0,0,3.593-.63,5.747,5.747,0,0,0,2.935-2.72,4.92,4.92,0,0,0-.145-4.32q-1.508-3.24-5.893-2.19Zm14.058-4.23a1.151,1.151,0,0,1,.073-0.47,0.659,0.659,0,0,0,.083-0.56,0.831,0.831,0,0,0-.7-0.4,2.983,2.983,0,0,0-1.541.09,1.013,1.013,0,0,0-.534.38,0.356,0.356,0,0,0-.061.29,0.492,0.492,0,0,0,.4.04,2.156,2.156,0,0,1,.442,0,0.525,0.525,0,0,1,.314.35,10.5,10.5,0,0,1,.408,1.88q-0.227.12-.873,0.45-0.559.285-.819,0.42c-0.311.14-.5,0.22-0.566,0.25a1.7,1.7,0,0,1-1.258-.14,0.327,0.327,0,0,0-.232-0.05c-0.088.04-.085,0.18,0.01,0.44a1.44,1.44,0,0,0,.814.81,1.375,1.375,0,0,0,.972.18,0.471,0.471,0,0,0,.28-0.23,1.647,1.647,0,0,1,.438-0.41q0.442-.315,1.321-0.84a13.844,13.844,0,0,1-.113,3.77,10.025,10.025,0,0,1-1.476,3.61,0.3,0.3,0,0,0-.046.24,0.135,0.135,0,0,0,.191.06,1.382,1.382,0,0,0,.329-0.25,7.962,7.962,0,0,0,2.1-3.75,12.364,12.364,0,0,0,.28-4.27c0.768-.42,1.5-0.8,2.191-1.12l0.207-.08a0.146,0.146,0,0,1,.2.1,5.449,5.449,0,0,1,.2.8,20.335,20.335,0,0,1,.4,3.81,0.737,0.737,0,0,1-.39.8,7.328,7.328,0,0,1-1.251.11,2.6,2.6,0,0,0-.375.03,0.112,0.112,0,0,0-.089.16,0.3,0.3,0,0,0,.23.17,5.536,5.536,0,0,1,.828.27,1.088,1.088,0,0,1,.609.56,0.61,0.61,0,0,0,.2.26,0.492,0.492,0,0,0,.354-0.02,1.736,1.736,0,0,0,.9-0.68,3.073,3.073,0,0,0,.319-1.53,35.772,35.772,0,0,0-.387-4.25,1.1,1.1,0,0,1,.065-0.64,0.523,0.523,0,0,0,.043-0.42,1.512,1.512,0,0,0-1.036-.63,1.412,1.412,0,0,0-.822-0.05,0.644,0.644,0,0,0-.3.24,0.864,0.864,0,0,1-.323.27l-1.914,1.01c-0.053-.42-0.085-0.77-0.1-1.06h0Zm21.624,1.14a0.25,0.25,0,0,1-.233.38q-1.1.3-2.469,0.6c-0.045.01-.059,0.05-0.04,0.12a0.121,0.121,0,0,0,.1.11c1.3-.07,2.074.18,2.329,0.76a0.84,0.84,0,0,0,.211.31,0.6,0.6,0,0,0,.4-0.01,2.689,2.689,0,0,0,1.262-.72,1.2,1.2,0,0,0,.373-0.64,2.267,2.267,0,0,0-.1-1.02l-2.74-9.87-0.531-1.95a0.961,0.961,0,0,0,.33-0.62,0.913,0.913,0,0,0-.551-0.39,3.388,3.388,0,0,0-1.2-.35,2.457,2.457,0,0,0-.644,1.05l-5.665,1.54a14.579,14.579,0,0,0-2.237-.45c0.369,1.06.805,2.52,1.308,4.37a40.058,40.058,0,0,1,1.3,6.13,11.866,11.866,0,0,1-.04,2.73,10.36,10.36,0,0,1-.823,2.77,0.109,0.109,0,0,0,0,.04,0.107,0.107,0,0,0,.146.07,0.079,0.079,0,0,0,.047-0.04,8.662,8.662,0,0,0,2.168-6.35l-0.06-.86,6.267-1.71Zm-7.412-2.7a33.449,33.449,0,0,0-.784-3.69l6.013-1.63,0.988,3.63Zm-0.876-4.09q-0.234-.93-0.74-2.79l-0.185-.68,5.979-1.62,0.942,3.46Zm23.812-2.88a30.018,30.018,0,0,1,.383,5.06,4.789,4.789,0,0,1-.177,1.2,0.683,0.683,0,0,1-.53.46,20.875,20.875,0,0,1-2.68.21c-0.06,0-.077.07-0.051,0.2a0.108,0.108,0,0,0,.075.11,7.056,7.056,0,0,1,1.534.29,1.263,1.263,0,0,1,.745.66,0.825,0.825,0,0,0,.26.37,0.885,0.885,0,0,0,.491-0.01,2.361,2.361,0,0,0,1.423-.79,2.774,2.774,0,0,0,.576-1.36,23.364,23.364,0,0,0-.232-6.13,1.1,1.1,0,0,0,.408-0.61,1.172,1.172,0,0,0-.531-0.48,2.838,2.838,0,0,0-1.147-.51,3.034,3.034,0,0,0-.816.96l-6.695,1.3a8.825,8.825,0,0,1-1.662.16l0.336,0.66a9.353,9.353,0,0,1,1.457-.42l1.337-.26a10.547,10.547,0,0,1-.522,4.82,11.491,11.491,0,0,1-3.489,4.48,0.079,0.079,0,0,0-.014.07c0.023,0.12.073,0.16,0.15,0.13a10.857,10.857,0,0,0,4.5-3.66,9.471,9.471,0,0,0,1.213-6.2Zm0.934-3.49a9.265,9.265,0,0,1-3.235-2.78,0.954,0.954,0,0,1-.179-0.37l0.024-.33a0.147,0.147,0,0,0-.2-0.11,1.174,1.174,0,0,0-.387.18,0.363,0.363,0,0,0-.241.28,0.226,0.226,0,0,0,.175.16,0.891,0.891,0,0,1,.295.27,25.992,25.992,0,0,0,1.8,2.61,10.407,10.407,0,0,0,2,1.88,12.205,12.205,0,0,0,2.222,1.25,1.868,1.868,0,0,0,.852.24c0.121-.02.186-0.21,0.194-0.56a2.5,2.5,0,0,1,.2-0.91,1.137,1.137,0,0,1,.6-0.53,0.136,0.136,0,0,0,.047-0.17c-0.013-.07-0.038-0.1-0.073-0.1a9.485,9.485,0,0,1-4.108-1.01h0Zm-8.621-2.75a11.868,11.868,0,0,1-.413,2.76,16.63,16.63,0,0,1-3.212,6.31,0.065,0.065,0,0,0-.009.05,0.134,0.134,0,0,0,.168.13,0.1,0.1,0,0,0,.024-0.01,15.978,15.978,0,0,0,3.174-3.25,17.058,17.058,0,0,0,2.222-4.83c0.476-.13.693-0.31,0.649-0.53s-0.908-.42-2.6-0.63h0Zm19.778-2.35c0.551-.13.814-0.3,0.787-0.52a0.534,0.534,0,0,0-.429-0.34,13.22,13.22,0,0,0-1.889-.41,8.926,8.926,0,0,1-.543,2.14,13.36,13.36,0,0,1-2.091,3.78,0.05,0.05,0,0,0-.013.04,0.127,0.127,0,0,0,.157.13,0.106,0.106,0,0,0,.025-0.01,12.862,12.862,0,0,0,2.15-1.87l0.338,2.84-1.248.15a5.974,5.974,0,0,1-1.273.01l0.278,0.63a8.133,8.133,0,0,1,1.044-.23l1.248-.15,0.461,3.89-0.934.11a6.744,6.744,0,0,1-1.353.01l0.271,0.64a8.033,8.033,0,0,1,1.131-.24l14.087-1.67a0.194,0.194,0,0,0,.214-0.22,1.435,1.435,0,0,0-.55-0.52,3.769,3.769,0,0,0-1.2-.67,3.037,3.037,0,0,0-.953,1.29l-0.218.02-0.461-3.88,2.984-.36c0.157-.02.229-0.08,0.215-0.2a1.091,1.091,0,0,0-.529-0.5,4.282,4.282,0,0,0-1.2-.66,3.5,3.5,0,0,0-1,1.25l-0.515.06-0.45-3.79,2.217-.26a0.191,0.191,0,0,0,.214-0.21,1.255,1.255,0,0,0-.563-0.5,4.124,4.124,0,0,0-1.261-.62,2.97,2.97,0,0,0-.927,1.21l-8.972,1.07q0.361-.615.759-1.44h0Zm6.473,9.19-0.461-3.88,1.431-.17,0.461,3.88Zm-0.51-4.29-0.45-3.79,1.431-.17,0.45,3.79Zm-2.457,4.64-0.462-3.88,1.449-.17,0.461,3.88Zm-0.51-4.29-0.451-3.79,1.449-.17,0.45,3.79Zm-2.44,4.64-0.462-3.88,1.449-.17,0.461,3.88Zm-0.511-4.29-0.449-3.79,1.448-.17,0.45,3.79Zm11.2,5.49a5.6,5.6,0,0,0-2.582-.88c-0.078,0-.111.04-0.1,0.13a0.151,0.151,0,0,0,.024.06,7.087,7.087,0,0,1,.87.91,5.882,5.882,0,0,1,.675,1.22,3.438,3.438,0,0,0,.479.97,0.73,0.73,0,0,0,.649.18,1.041,1.041,0,0,0,.676-0.35,1.078,1.078,0,0,0,.235-0.85,1.975,1.975,0,0,0-.926-1.39h0Zm-4.126.58a4.514,4.514,0,0,0-1.96-1h-0.027a0.111,0.111,0,0,0-.106.14,0.068,0.068,0,0,0,.012.04,5.783,5.783,0,0,1,.834,2.02,2.333,2.333,0,0,0,.341.94,0.7,0.7,0,0,0,.647.23,1.065,1.065,0,0,0,.679-0.32,0.988,0.988,0,0,0,.236-0.84,1.982,1.982,0,0,0-.656-1.21h0Zm-3.4,2.61a1.11,1.11,0,0,0,.254-0.92,3.206,3.206,0,0,0-2.008-2.3,0.157,0.157,0,0,0-.072-0.01,0.387,0.387,0,0,1-.071.03,0.082,0.082,0,0,0-.029.1,4.83,4.83,0,0,1,.258,1.13,6.04,6.04,0,0,1,.025.95,4.363,4.363,0,0,0,0,.76,0.663,0.663,0,0,0,.838.65,1.206,1.206,0,0,0,.8-0.39h0Zm-4.3-3a0.073,0.073,0,0,0-.071.07,2.472,2.472,0,0,1-.434,1.11,2.747,2.747,0,0,1-1.025.76,1.208,1.208,0,0,0-.849,1.28,0.827,0.827,0,0,0,.307.57,0.9,0.9,0,0,0,.731.19,1.782,1.782,0,0,0,1.267-.73,2.793,2.793,0,0,0,.443-2.08,5.6,5.6,0,0,0-.256-1.12,0.093,0.093,0,0,0-.113-0.05h0Zm17.413-.94c0.025,1.68.041,2.58,0.048,2.69a0.571,0.571,0,0,0,.735.54c0.667-.03.987-0.29,0.959-0.77l-0.471-7.34,0-.06a3.865,3.865,0,0,1,1.068,1.6,1.42,1.42,0,0,0,.381.65,0.745,0.745,0,0,0,.545.14,0.7,0.7,0,0,0,.487-0.26,0.852,0.852,0,0,0,.236-0.64c-0.054-.95-0.968-1.6-2.742-1.93l-0.076-1.34,2.86-.16a0.189,0.189,0,0,0,.218-0.2,0.993,0.993,0,0,0-.424-0.49,2.916,2.916,0,0,0-.967-0.58,2.176,2.176,0,0,0-.851.96l-0.86.05-0.293-5.14a0.8,0.8,0,0,0,.526-0.5,0.309,0.309,0,0,0-.288-0.26q-0.3-.075-1.9-0.21c0.079,0.55.148,1.36,0.209,2.42l0.215,3.78-1.834.1a5.707,5.707,0,0,1-1.21-.07l0.231,0.66a5.847,5.847,0,0,1,1.073-.17l1.623-.09a21.073,21.073,0,0,1-2.884,7,0.065,0.065,0,0,0-.015.05,0.1,0.1,0,0,0,.12.1,0.063,0.063,0,0,0,.044-0.01,13.389,13.389,0,0,0,3.135-4.16c0.042,0.96.076,2.17,0.1,3.64h0Zm10.592-9.71-0.164-2.88a0.924,0.924,0,0,0,.569-0.52,0.454,0.454,0,0,0-.431-0.31,15.216,15.216,0,0,0-1.964-.17c0.114,0.88.21,2,.288,3.38q0.3,5.19.384,7.03l-4.507,1.1a8.378,8.378,0,0,1-1.422.21l0.37,0.63a7.3,7.3,0,0,1,1.242-.45l4.34-1.08,0.249,4.83a0.626,0.626,0,0,0,.808.59c0.7-.04,1.03-0.31,1-0.83-0.016-.28-0.053-0.83-0.11-1.64-0.127-1.7-.209-2.82-0.246-3.37l2.275-.56a0.231,0.231,0,0,0,.19-0.23,0.739,0.739,0,0,0-.456-0.42,3.721,3.721,0,0,0-1.111-.5,2.637,2.637,0,0,0-.756,1.27l-0.164.04q-0.224-3.3-.384-6.12h0Zm-5.719-1.64a0.078,0.078,0,0,0-.083.09,0.079,0.079,0,0,0,.039.07,3.681,3.681,0,0,1,1.387,1.47,6.813,6.813,0,0,0,.508.89,0.528,0.528,0,0,0,.486.17,0.826,0.826,0,0,0,.609-0.28,0.935,0.935,0,0,0,.248-0.73q-0.09-1.59-3.194-1.68h0Zm-0.354,4.29a0.088,0.088,0,0,0-.1.1,0.064,0.064,0,0,0,.039.06,5.631,5.631,0,0,1,.963.85,3.955,3.955,0,0,1,.679,1.1,1.312,1.312,0,0,0,.3.47,0.73,0.73,0,0,0,.491.12,0.757,0.757,0,0,0,.573-0.29,1.072,1.072,0,0,0,.229-0.79q-0.087-1.5-3.174-1.62h0Zm-7.684-4.61a0.066,0.066,0,0,0-.045-0.01,0.091,0.091,0,0,0-.1.11,0.061,0.061,0,0,0,.011.03,6.9,6.9,0,0,1,.831,2.54,3.488,3.488,0,0,0,.266.96,0.5,0.5,0,0,0,.515.23,0.626,0.626,0,0,0,.5-0.3,1.243,1.243,0,0,0,.192-0.8c-0.052-.93-0.777-1.84-2.173-2.76h0Zm5.506-.4a12.98,12.98,0,0,1-.174,1.44,21.556,21.556,0,0,1-.635,2.6,0.054,0.054,0,0,0-.007.02,0.094,0.094,0,0,0,.128.09,0.062,0.062,0,0,0,.06-0.03,14.515,14.515,0,0,0,1.907-2.83c0.454-.07.675-0.21,0.664-0.41-0.01-.17-0.658-0.46-1.943-0.88h0Zm18.7-.06a12.452,12.452,0,0,0,.2,1.61q0.36,2.19.377,2.34a31.7,31.7,0,0,1,.36,4.42q-0.006.7-.054,1.17a0.175,0.175,0,0,0,.174.22c0.387,0.01.581-.1,0.583-0.32a10.039,10.039,0,0,1-.052-1.17,35.448,35.448,0,0,1,.414-4.44c0.049-.33.166-1.01,0.35-2.02a14.661,14.661,0,0,0,.26-1.79,1.092,1.092,0,0,0-1.282-1.18,1.1,1.1,0,0,0-1.328,1.16h0Zm0.355,11.63a1.179,1.179,0,0,0-.421.92,1.273,1.273,0,0,0,1.256,1.27,1.294,1.294,0,0,0,1.249-1.25,1.206,1.206,0,0,0-.318-0.84,1.177,1.177,0,0,0-.911-0.42,1.22,1.22,0,0,0-.855.32h0Z" transform="translate(-286.938 -5160.84)"/>
  <path id="シェイプ_1" data-name="シェイプ 1" class="cls-1" d="M286.952,5209.37l1.722-2.95,20.111,12.55-0.268,1.15Z" transform="translate(-286.938 -5160.84)"/>
  <path id="シェイプ_1-2" data-name="シェイプ 1" class="cls-1" d="M451.463,5162.11l-3.168-1.26-8.139,22.26,0.919,0.75Z" transform="translate(-286.938 -5160.84)"/>
</svg>
