<?xml version="1.0" encoding="utf-8"?>
<!-- Generator: Adobe Illustrator 25.2.1, SVG Export Plug-In . SVG Version: 6.00 Build 0)  -->
<svg version="1.1" id="レイヤー_1" xmlns="http://www.w3.org/2000/svg" xmlns:xlink="http://www.w3.org/1999/xlink" x="0px"
	 y="0px" viewBox="0 0 53.4 33" style="enable-background:new 0 0 53.4 33;" xml:space="preserve">
<style type="text/css">
	.st0{fill:#004097;}
	.st1{fill:#009844;}
	.st2{fill:#FFFFFF;}
</style>
<g>
	<rect class="st0" width="53.4" height="33"/>
	<rect x="0.8" y="16.9" class="st1" width="51.9" height="15.3"/>
	<polygon class="st2" points="49.6,20 49.6,27.1 49.6,27 43.8,19.9 43.8,29.2 44.6,29.2 44.6,22.1 50.4,29.3 50.4,20 	"/>
	<path class="st2" d="M36.7,19.8c-2.6,0-4.8,2.1-4.8,4.8c0,2.6,2.1,4.8,4.8,4.8c2.6,0,4.8-2.1,4.8-4.8
		C41.4,21.9,39.3,19.8,36.7,19.8 M36.7,28.6c-2.2,0-4-1.8-4-4c0-2.2,1.8-4,4-4c2.2,0,4,1.8,4,4C40.6,26.8,38.9,28.6,36.7,28.6"/>
	<path class="st2" d="M36.7,22.7c-1,0-1.8,0.8-1.8,1.8c0,1,0.8,1.8,1.8,1.8c1,0,1.8-0.8,1.8-1.8C38.5,23.6,37.7,22.7,36.7,22.7
		 M36.7,25.6c-0.6,0-1.1-0.5-1.1-1.1c0-0.6,0.5-1.1,1.1-1.1c0.6,0,1.1,0.5,1.1,1.1C37.7,25.2,37.3,25.6,36.7,25.6"/>
	<path class="st2" d="M7.1,24.4c-0.6-0.2-1.3-0.4-1.8-0.5c-0.6-0.2-1.1-0.8-1.1-1.5c0-0.3,0.1-0.7,0.3-0.9c0.4-0.7,1.4-1,2.1-0.7
		c0.5,0.2,0.9,0.6,1.2,1l0.7-0.3c-0.3-0.7-0.8-1.3-1.6-1.5c-0.6-0.2-1.3-0.2-1.9,0.1c-0.9,0.4-1.6,1.3-1.6,2.3
		c0,0.9,0.5,1.7,1.3,2.1c0.6,0.2,1.2,0.4,1.8,0.5C7.2,25.2,8,25.8,8,26.7v0c0,1.3-1.4,2-2.6,1.8c-0.8-0.2-1.5-0.8-1.8-1.6l-0.7,0.3
		c0.3,1,1.1,1.7,2.1,2c1,0.3,2.1,0,2.9-0.6c0.6-0.4,0.9-1.1,0.9-1.9C8.8,25.7,8,24.8,7.1,24.4"/>
	<path class="st2" d="M28.1,24.4c-0.6-0.2-1.3-0.4-1.8-0.5c-0.6-0.2-1.1-0.8-1.1-1.5c0-0.3,0.1-0.7,0.3-0.9c0.4-0.7,1.4-1,2.1-0.7
		c0.5,0.2,0.9,0.6,1.2,1l0.7-0.3c-0.3-0.7-0.8-1.3-1.6-1.5c-0.6-0.2-1.3-0.2-1.9,0.1c-0.9,0.4-1.6,1.3-1.6,2.3
		c0,0.9,0.5,1.7,1.3,2.1c0.6,0.2,1.2,0.4,1.8,0.5c0.8,0.1,1.6,0.8,1.6,1.6v0c0,1.3-1.4,2-2.6,1.8c-0.8-0.2-1.5-0.8-1.8-1.6l-0.7,0.3
		c0.3,1,1.1,1.7,2.1,2c1,0.3,2.1,0,2.9-0.6c0.6-0.4,0.9-1.1,0.9-1.9C29.8,25.7,29.1,24.8,28.1,24.4"/>
	<rect x="20.1" y="20" class="st2" width="0.8" height="9.1"/>
	<path class="st2" d="M14,19.5l-3.9,9.6H11l1.2-3.1h3.6l1.2,3.1l0,0h0.8v0L14,19.5z M12.5,25.3l1.5-3.7l1.5,3.7H12.5z"/>
	<path class="st2" d="M6.2,8.4c0-2.2,1.7-4,3.9-4c0.4,0,0.8,0.1,1.1,0.2V3.7c-0.4-0.1-0.7-0.1-1.1-0.1C8.8,3.6,7.7,4.1,6.8,5
		C5.9,5.9,5.5,7.1,5.5,8.4c0,1.3,0.5,2.5,1.4,3.4c0.9,0.9,2,1.4,3.2,1.4c0.4,0,0.9-0.1,1.3-0.2v-0.8c-0.4,0.1-0.8,0.2-1.3,0.2
		C7.9,12.4,6.2,10.5,6.2,8.4"/>
	<path class="st2" d="M19.4,6.5c0-0.7-0.3-1.4-0.7-1.9c-0.5-0.5-1.1-0.8-1.8-0.8H14v9h0.8V9.2h1.8l1.8,3.8h0.9l-1.8-3.8
		C18.6,8.9,19.4,7.8,19.4,6.5 M16.9,8.4h-2.2V4.7h2.2c1,0,1.7,0.8,1.7,1.8C18.7,7.6,17.9,8.4,16.9,8.4"/>
	<polygon class="st2" points="22.7,8.2 26.6,8.2 26.6,7.4 22.7,7.4 22.7,4.7 26.6,4.7 26.6,3.9 21.9,3.9 21.9,13 26.7,13 26.7,12.2 
		22.7,12.2 	"/>
	<polygon class="st2" points="41.8,4.7 44.5,4.7 44.5,12.9 45.3,12.9 45.3,4.7 48,4.7 48,3.8 41.8,3.8 	"/>
	<rect x="38.5" y="3.7" class="st2" width="0.8" height="9.1"/>
	<path class="st2" d="M32.1,3.9l-2.5,0v0l0,9h0h2.5c2.3-0.1,4.1-2.1,4.1-4.5C36.2,5.9,34.3,3.9,32.1,3.9 M32.1,12.1l-1.8,0V4.6h1.8
		c1.9,0.1,3.4,1.7,3.4,3.7C35.4,10.4,33.9,12,32.1,12.1"/>
</g>
</svg>
