<svg xmlns="http://www.w3.org/2000/svg" width="320" height="100" viewBox="0 0 320 100"><defs><style>.cls-1{fill:#fff;}</style></defs><g id="レイヤー_2" data-name="レイヤー 2"><g id="svg"><path class="cls-1" d="M69.35,43c2.24,0,4.28,0,6.48-.12.44,0,.48.12.48.48a12.34,12.34,0,0,1,0,1.72c0,.4-.08.52-.52.48-2-.08-4.16,0-6.39,0H67.87C67.75,50.93,67,54.81,65,58.13s-5.48,6-9.84,7.68c-.6.24-.72.32-1.08,0A5.61,5.61,0,0,0,52,64.25c5.32-1.68,8.8-4.08,10.72-7.44,1.64-2.92,2.36-6.16,2.43-11.32H55v2c0,2.24,0,4.36.12,6.48,0,.36-.12.44-.48.44a16.68,16.68,0,0,1-2,0c-.36,0-.48-.08-.48-.48.08-2,.16-4.08.16-6.36v-2h-2c-2.12,0-4.44.08-6.16.16-.36,0-.36-.12-.44-.56s-.12-1.4-.16-2.28c2.08.12,4.2.16,6.76.16h2V39.69a26.66,26.66,0,0,0-.44-5.6,17,17,0,0,1,3.24.48c.6.16.44.6.2,1.12a14.55,14.55,0,0,0-.32,4V43H65.19l0-3.56a34.06,34.06,0,0,0-.35-6,22.87,22.87,0,0,1,3,.52c.61.16.65.52.4,1.08S68,36.21,68,39.29l0,3.68Z"/><path class="cls-1" d="M91.2,51.21a32.72,32.72,0,0,0-5.4.4c-.36,0-.56-.16-.68-.56a23.64,23.64,0,0,1-.4-3,73.06,73.06,0,0,0,8.84.36h12.28c2.75,0,5.71,0,8.75-.12.48,0,.6,0,.6.48a18,18,0,0,1,0,2.08c0,.44-.12.52-.6.48-3-.08-6-.08-8.63-.08Z"/><path class="cls-1" d="M132.52,47.41a73.73,73.73,0,0,0,11.64-4.16A10.17,10.17,0,0,0,148,40.61a18.11,18.11,0,0,1,2.32,2.2c.32.44.2,1-.32,1a22.23,22.23,0,0,0-3.68,1.48,101.5,101.5,0,0,1-13.83,4.8V57c0,2.12.56,2.8,2.08,3.12a29.16,29.16,0,0,0,6,.44,60,60,0,0,0,10.15-.88c.44-.08.52,0,.56.4.08.64.16,1.4.2,1.92s-.16.52-.64.56a69.09,69.09,0,0,1-10.83.68,27,27,0,0,1-7.08-.72c-2.16-.6-3.16-2.12-3.16-5V42.69a35.7,35.7,0,0,0-.36-7.08,24,24,0,0,1,3.28.56c.6.16.44.68.24,1.12-.36.76-.44,2.12-.44,4.8Zm17.15-12.08c.2-.12.28-.12.44,0a19.41,19.41,0,0,1,4.52,4.84.29.29,0,0,1-.08.44l-1.16,1a.32.32,0,0,1-.52-.08,17.27,17.27,0,0,0-4.64-5.12ZM153,32.69c.16-.12.28-.16.44,0A23,23,0,0,1,158,37.33c.12.2.08.32-.12.48l-1.08,1c-.16.16-.32.16-.48-.08a19.11,19.11,0,0,0-4.6-5Z"/><path class="cls-1" d="M185.6,37.77a4.14,4.14,0,0,0,2.27-.32.68.68,0,0,1,.8.12,10.59,10.59,0,0,1,1.64,1.64c.24.32.16.6-.2.92A5.28,5.28,0,0,0,189,41.61a72.6,72.6,0,0,1-5.91,8.6,82.42,82.42,0,0,1,11.47,10c.36.32.36.44,0,.84a16.31,16.31,0,0,1-1.44,1.44c-.28.24-.44.24-.72-.08a73.51,73.51,0,0,0-11-10.16,61.15,61.15,0,0,1-14.28,11.16c-.44.24-.68.28-1-.08A6.84,6.84,0,0,0,164,61.93a51.72,51.72,0,0,0,14.72-10.84,49.92,49.92,0,0,0,7.59-10.72h-12c-2.24,0-4,.12-5.76.24-.36,0-.4-.12-.48-.44a15.49,15.49,0,0,1-.24-2.56c2,.16,3.72.16,6.2.16Z"/><path class="cls-1" d="M212.76,41.69c0,.28,0,.32-.36.32s-.92-.08-3.24-.08a30.67,30.67,0,0,0,3.76,8,7.72,7.72,0,0,0-.92,1.64c-.12.28-.2.4-.32.4s-.2-.12-.32-.4a44,44,0,0,1-2.56-7.08c0,12.16.4,22.28.4,22.84,0,.24,0,.28-.32.28H207c-.28,0-.32,0-.32-.28,0-.56.32-10.84.4-22.68a56.25,56.25,0,0,1-4.48,13c-.16.28-.28.48-.4.48s-.2-.16-.32-.44a4.58,4.58,0,0,0-1-1.48,55.33,55.33,0,0,0,5.52-14.2h-.6c-2.6,0-3.32.08-3.52.08s-.36,0-.36-.32v-1.6c0-.28,0-.32.36-.32s.92.08,3.52.08h1V36.49a25.77,25.77,0,0,0-.28-4.88,22.5,22.5,0,0,1,2.52.24c.28,0,.48.16.48.32a1.86,1.86,0,0,1-.24.8c-.2.44-.2,1.16-.2,3.44v3.44c2.4,0,3.12-.08,3.32-.08s.36,0,.36.32Zm7.44,10.36c.4-.2.44-.2.64,0a25.54,25.54,0,0,1,3.24,6c.12.24.08.36-.36.6l-.84.48c-.48.28-.48.28-.6,0a13.69,13.69,0,0,0-.52-1.36A81.53,81.53,0,0,1,214,61.89a4.76,4.76,0,0,0-1.44.88c-.2.24-.36.4-.6.4a.49.49,0,0,1-.44-.32,18.72,18.72,0,0,1-1-2.12c1.12-.32,2.16-.68,3.28-1.12V40.29c0-4.08-.08-5.88-.08-6.12s0-.32.32-.32,1.12.08,3.32.08h2.76c1.92,0,2.52-.08,2.76-.08s.28,0,.28.32-.08,1.44-.08,4.28v7c0,2.88.08,4.08.08,4.32s0,.32-.28.32-.84-.08-2.76-.08H216v8.72a55.83,55.83,0,0,0,5-2.6A25.41,25.41,0,0,0,219.16,53c-.2-.24-.16-.36.28-.56Zm1-16.12H216v5h5.2Zm0,6.84H216V48h5.2Zm11.07,19.68c0,1,0,1.4.32,1.64a2.24,2.24,0,0,0,1.56.36,1.29,1.29,0,0,0,1.32-.72c.44-.64.56-1.8.64-4.6a4.64,4.64,0,0,0,1.4.84c.52.2.56.32.52.92-.12,2.88-.52,4.08-1.16,4.72a3.64,3.64,0,0,1-2.88,1,6.26,6.26,0,0,1-2.8-.44c-.6-.36-1-1-1-2.92V56.45c0-.56,0-1.08,0-1.52-2.08,4.28-4.88,7.92-10.31,12-.28.2-.44.36-.6.36s-.32-.16-.6-.48a4.29,4.29,0,0,0-1.44-1.16C224,61.33,227.4,56.53,229.59,51l.36-1h-1c-3,0-3.95.08-4.15.08s-.32,0-.32-.36V48.21c0-.28,0-.32.32-.32.12,0,.55,0,1.59.08V36.21c-1,0-1.43,0-1.55,0-.28,0-.32,0-.32-.32V34.45c0-.28,0-.32.32-.32s1.08.08,3.95.08h4.44c2.88,0,3.76-.08,4-.08s.32,0,.32.32v1.48c0,.28,0,.32-.32.32s-.84,0-2.72-.08A67,67,0,0,1,232.71,48h.6c3,0,4-.08,4.16-.08s.32,0,.32.32v1.44c0,.32,0,.36-.32.36s-1.16-.08-4.16-.08h-1.16c-.2.68-.44,1.24-.64,1.8l-.44,1,1.12.16c.32,0,.52.16.52.36a1.45,1.45,0,0,1-.24.6c-.2.32-.24.84-.24,2.52Zm-3.75-26.28V48h2.07a57.65,57.65,0,0,0,1.68-11.8Z"/><path class="cls-1" d="M277.75,54.57c0,.28,0,.32-.32.32s-1.44-.08-5.12-.08h-4.44a20,20,0,0,1-4.15,6,113,113,0,0,1,10.47,4.28c.28.12.28.24,0,.64l-.8,1.12c-.4.52-.4.6-.72.44a68.61,68.61,0,0,0-10.79-4.88c-4.2,3.08-9.72,4.44-16.56,5-.76,0-.8,0-1.12-.72a3.8,3.8,0,0,0-1-1.36c7.32-.4,12.28-1.68,15.84-3.84-2.2-.6-4.48-1.16-7-1.64a13.79,13.79,0,0,1-.92,1.12.76.76,0,0,1-.88.2l-1.36-.32c-.24,0-.28-.16-.28-.28s.2-.32.4-.52c.64-.72,1.16-1.36,1.84-2.24s1.48-2,2.2-3h-5.36c-3.68,0-4.92.08-5.12.08s-.32,0-.32-.32V52.93c0-.28,0-.32.32-.32s1.44.08,5.12.08h6.72l.52-.88a12.4,12.4,0,0,0,1.44-3.2,11.3,11.3,0,0,1,2.4.64c.32.12.44.24.44.44s-.12.32-.4.52-.6.52-1.32,1.72l-.48.76h15.31c3.68,0,4.92-.08,5.12-.08s.32,0,.32.32Zm-.52-19.36c0,.28,0,.32-.32.32s-1.44-.08-5.28-.08H265v3.92h2.72c4.07,0,5.51-.08,5.71-.08s.32,0,.32.32-.08.88-.08,2.92v2.76c0,2,.08,2.68.08,2.92s0,.32-.32.32-1.64-.08-5.71-.08H252.28c-4.08,0-5.52.08-5.76.08s-.32,0-.32-.32.08-.88.08-2.92V42.53c0-2-.08-2.68-.08-2.92s0-.32.32-.32,1.68.08,5.76.08h2.2V35.45h-6c-3.8,0-5.08.08-5.28.08s-.32,0-.32-.32V33.53c0-.28,0-.32.32-.32s1.48.08,5.28.08h23.15c3.84,0,5.08-.08,5.28-.08s.32,0,.32.32Zm-22.75,6H248.6v5.32h5.88Zm1.16,13.56c-.72,1.12-1.48,2.28-2.24,3.28,2.8.56,5.32,1.16,7.76,1.88a16.43,16.43,0,0,0,4-5.16Zm7.12-19.36h-6v3.92h6Zm0,5.8h-6v5.32h6Zm8.59,0H265v5.32h6.35Z"/><path class="cls-1" d="M300,2a18,18,0,0,1,18,18V80a18,18,0,0,1-18,18H20A18,18,0,0,1,2,80V20A18,18,0,0,1,20,2H300m0-2H20A20,20,0,0,0,0,20V80a20,20,0,0,0,20,20H300a20,20,0,0,0,20-20V20A20,20,0,0,0,300,0Z"/></g></g></svg>