<svg xmlns="http://www.w3.org/2000/svg" width="140" height="140" viewBox="0 0 140 140"><defs><style>.cls-1,.cls-2,.cls-3{fill:none;}.cls-1,.cls-2{stroke:#2a76c8;stroke-linecap:round;stroke-width:2px;}.cls-1{stroke-linejoin:round;}.cls-2{stroke-miterlimit:10;}</style></defs><g id="レイヤー_2" data-name="レイヤー 2"><g id="svg"><path class="cls-1" d="M107,111H32a6,6,0,0,1-6-6v-3h87v3A6,6,0,0,1,107,111Z"/><polygon class="cls-1" points="104 78 35 78 26 102 113 102 104 78"/><path class="cls-1" d="M98,30H41a6,6,0,0,0-6,6V78h69V36A6,6,0,0,0,98,30Z"/><rect class="cls-2" x="41" y="36" width="57" height="36"/><polygon class="cls-2" points="81.5 87 57.5 87 54.5 96 84.5 96 81.5 87"/><rect class="cls-3" width="140" height="140"/></g></g></svg>